<svg xmlns="http://www.w3.org/2000/svg" version="1.1" viewBox="0 0 3000 2571" width="3000" height="2571">
<!--ITEM 1--><g><defs><clipPath id="clip-path-id-viewbox-item-1"><rect x="0.0" y="0.0" width="581.0" height="458.0"/></clipPath></defs><g transform="translate(334.0 193.0) rotate(0.0 1123.0 885.0) scale(3.865748709122203 3.8646288209606987)"><g clip-path="url(#clip-path-id-viewbox-item-1)" transform="translate(-0.0 -0.0)"><g id="ad676834-6c35-401d-b902-0e27e02ba7a8-i1" data-name="Layer 2"><g id="aef774b5-2a84-4f80-8c69-6e81a6b7bc15-i1" data-name="browser_window"><path d="M570.657,457H10.343A8.3,8.3,0,0,1,2,448.7V10.305A8.3,8.3,0,0,1,10.343,2H570.657A8.3,8.3,0,0,1,579,10.305V448.8A8.283,8.283,0,0,1,570.657,457Z" fill="#fff"/><path d="M578.7,30.45V10.95a8.28,8.28,0,0,0-8.3-8.3H10.5a8.28,8.28,0,0,0-8.3,8.3v19.5Z" fill="#ffce31"/><path d="M566.621,16.5l4.94-4.939a1.5,1.5,0,0,0-2.122-2.122l-4.939,4.94-4.939-4.94a1.5,1.5,0,0,0-2.122,2.122l4.94,4.939-4.94,4.939a1.5,1.5,0,0,0,2.122,2.122l4.939-4.94,4.939,4.94a1.5,1.5,0,0,0,2.122-2.122Z" fill="#1a1a1a"/><path d="M571.072,0H9.928A9.878,9.878,0,0,0,0,9.806V448.194A9.878,9.878,0,0,0,9.928,458H571.072A9.829,9.829,0,0,0,581,448.3V9.806A9.878,9.878,0,0,0,571.072,0ZM9.928,3H571.072A6.875,6.875,0,0,1,578,9.806V30H3V9.806A6.875,6.875,0,0,1,9.928,3ZM578,33V88H3V33Zm-6.928,422H9.928A6.875,6.875,0,0,1,3,448.194V91H578V448.3A6.826,6.826,0,0,1,571.072,455Z" fill="#1a1a1a"/><path d="M544.5,24h-6a4.505,4.505,0,0,1-4.5-4.5v-6A4.505,4.505,0,0,1,538.5,9h6a4.505,4.505,0,0,1,4.5,4.5v6A4.505,4.505,0,0,1,544.5,24Zm-6-12a1.5,1.5,0,0,0-1.5,1.5v6a1.5,1.5,0,0,0,1.5,1.5h6a1.5,1.5,0,0,0,1.5-1.5v-6a1.5,1.5,0,0,0-1.5-1.5Z" fill="#1a1a1a"/><path d="M524.5,24h-12a1.5,1.5,0,0,1,0-3h12a1.5,1.5,0,0,1,0,3Z" fill="#1a1a1a"/><path d="M512.5,76h-366a5.507,5.507,0,0,1-5.5-5.5v-20a5.507,5.507,0,0,1,5.5-5.5h366a5.507,5.507,0,0,1,5.5,5.5v20A5.507,5.507,0,0,1,512.5,76Zm-366-28a2.5,2.5,0,0,0-2.5,2.5v20a2.5,2.5,0,0,0,2.5,2.5h366a2.5,2.5,0,0,0,2.5-2.5v-20a2.5,2.5,0,0,0-2.5-2.5Z" fill="#1a1a1a"/><path d="M57.5,74a1.5,1.5,0,0,1-.978-2.639L69.195,60.5,56.523,49.639a1.5,1.5,0,0,1,1.954-2.278l14,12a1.5,1.5,0,0,1,0,2.278l-14,12A1.5,1.5,0,0,1,57.5,74Z" fill="#1a1a1a"/><path d="M33.5,74a1.494,1.494,0,0,1-.976-.361l-14-12a1.5,1.5,0,0,1,0-2.278l14-12a1.5,1.5,0,1,1,1.954,2.278L21.805,60.5,34.477,71.361A1.5,1.5,0,0,1,33.5,74Z" fill="#1a1a1a"/><path d="M118,59a1.5,1.5,0,0,0-1.5,1.5,10.07,10.07,0,1,1-6.6-9.382l-2.879.959a1.5,1.5,0,0,0,.95,2.846l6-2a1.5,1.5,0,0,0,.867-2.094l-3-6a1.5,1.5,0,0,0-2.684,1.342l.923,1.846A12.992,12.992,0,1,0,119.5,60.5,1.5,1.5,0,0,0,118,59Z" fill="#1a1a1a"/><path d="M564.061,71.939l-8.45-8.449a11.541,11.541,0,1,0-2.121,2.121l8.449,8.45a1.5,1.5,0,0,0,2.122-2.122ZM538,56.5a8.5,8.5,0,1,1,8.5,8.5A8.51,8.51,0,0,1,538,56.5Z" fill="#1a1a1a"/></g></g></g></g></g><!--ITEM 2--><g><defs><clipPath id="clip-path-id-crop-item-2"><rect transform="scale(0.07157339821573398 0.07178217821782178)" x="0.0" y="0.0" width="2226.0" height="1412.0"/></clipPath><clipPath id="clip-path-id-viewbox-item-2"><rect x="0.0" y="0.0" width="176.5" height="101.5"/></clipPath></defs><g clip-path="url(#clip-path-id-crop-item-2)" transform="translate(343.0 538.0) rotate(0.0 1233.0 707.0) scale(13.971671388101983 13.931034482758621)"><g clip-path="url(#clip-path-id-viewbox-item-2)" transform="translate(-0.0 -0.0)"><title>rectangle_1 copy 5</title><g id="Layer_2-i2" data-name="Layer 2"><g id="rectangle_1_copy_5-i2" data-name="rectangle_1 copy 5"><rect width="176.5" height="101.5" fill="#fece2f"/></g></g></g></g></g><!--ITEM 3--><g><defs><clipPath id="clip-path-id-viewbox-item-3"><rect x="0.0" y="0.0" width="628.25" height="615.169"/></clipPath></defs><g transform="translate(615.0 60.0) rotate(0.0 437.0 427.5) scale(1.3911659371269398 1.389861972888751)"><g clip-path="url(#clip-path-id-viewbox-item-3)" transform="translate(-0.0 -0.0)"><title>thought_bubble_l_1 copy</title><g id="Layer_2-i3" data-name="Layer 2"><g id="thought_bubble_l_1_copy-i3" data-name="thought_bubble_l_1 copy"><path d="M625.75,289.75A105.647,105.647,0,0,0,578.3,201.516a105.792,105.792,0,0,0-141-134.751,105.779,105.779,0,0,0-188.362-12.3A105.753,105.753,0,0,0,83.2,131.492,105.774,105.774,0,0,0,56.1,326.26,105.792,105.792,0,0,0,206.985,446.75a105.759,105.759,0,0,0,163.944,26.726A105.765,105.765,0,0,0,535.4,394.38,105.769,105.769,0,0,0,625.75,289.75Z" fill="#fff" stroke="#1a1a1a" stroke-linecap="round" stroke-linejoin="round" stroke-width="5"/><circle cx="95.875" cy="527.625" r="43.125" fill="#fff" stroke="#1a1a1a" stroke-linecap="round" stroke-linejoin="round" stroke-width="5"/><circle cx="27.25" cy="595.419" r="17.25" fill="#fff" stroke="#1a1a1a" stroke-linecap="round" stroke-linejoin="round" stroke-width="5"/></g></g></g></g></g><!--ITEM 4--><g><defs><clipPath id="clip-path-id-viewbox-item-4"><rect x="0.0" y="0.0" width="180.12" height="91.56"/></clipPath></defs><g transform="translate(1571.0 1110.0) rotate(0.0 185.0 94.5) scale(2.054186098156784 2.0642201834862384)"><g clip-path="url(#clip-path-id-viewbox-item-4)" transform="translate(-0.0 -0.0)"><title>semicircle_1</title><g id="Layer_2-i4" data-name="Layer 2"><g id="semicircle_1-i4"><path d="M178.62,90.06H1.5a88.56,88.56,0,0,1,177.12,0Z" fill="#fece2f" stroke="#1a1a1a" stroke-miterlimit="10" stroke-width="3"/></g></g></g></g></g><!--ITEM 5--><g><defs><clipPath id="clip-path-id-viewbox-item-5"><rect x="0.0" y="0.0" width="100.0" height="100.0"/></clipPath></defs><g transform="translate(808.0 184.0) rotate(0.0 230.5 230.5) scale(4.61 4.61)"><g clip-path="url(#clip-path-id-viewbox-item-5)" transform="translate(-0.0 -0.0)"><path d="M57,92H43c0.7-1.6,1-3.3,1-5c-0.1-3.2-1.2-6.4-3-9h18c-1.8,2.6-2.9,5.8-3,9C56,88.7,56.3,90.4,57,92z" style="fill:#FFFFFF;"/>
<path d="M57,8c1.6,0,3-0.4,4-1v19H51V3c0-1.7,2.2-3,5-3s5,1.3,5,3c0,2-1.3,3-4,3c-1,0-1.5-0.3-1.7-0.5  C55,5.3,54.9,5,54.9,4.8C54.9,4.3,55.3,4,56,4c0.5,0,1-0.5,1-1s-0.5-1-1-1c-2.1,0-3.1,1.4-3.1,2.8c0,0.9,0.4,1.7,1.1,2.3  C54.8,7.7,55.8,8,57,8z" style="fill:#1A1A1A;"/>
<path d="M74.7,6.3C74.7,6.3,74.7,6.3,74.7,6.3L74.7,6.3c-0.4,2-1.9,2.7-4.5,2.2c-1.4-0.2-2-1-1.9-1.6  c0.1-0.5,0.6-0.7,1.3-0.6c0.5,0.1,1.1-0.3,1.2-0.8c0.1-0.5-0.2-1.1-0.8-1.2c-2-0.4-3.3,0.8-3.6,2.2c-0.3,1.6,0.8,3.4,3.5,3.9  c0.6,0.1,1.2,0.2,1.7,0.2c0.9,0,1.7-0.2,2.4-0.5L71.5,24l-10.2,0l3.5-19.4c0,0,0,0,0-0.1c0.3-1.6,2.7-2.5,5.5-2  C73,3,75,4.7,74.7,6.3z" style="fill:#1A1A1A;"/>
<circle cx="25" cy="19" r="15" style="fill:#FFFFFF;"/>
<path d="M25,19H10c0,8.3,6.7,15,15,15V19z" style="fill:#FECE2F;"/>
<g>
	<path d="M25,35c-8.8,0-16-7.2-16-16S16.2,3,25,3s16,7.2,16,16S33.8,35,25,35z M25,5c-7.7,0-14,6.3-14,14s6.3,14,14,14   s14-6.3,14-14S32.7,5,25,5z" style="fill:#1A1A1A;"/>
</g>
<g>
	<path d="M25,21c-0.6,0-1-0.4-1-1V4c0-0.6,0.4-1,1-1s1,0.4,1,1v16C26,20.6,25.6,21,25,21z" style="fill:#1A1A1A;"/>
</g>
<g>
	<path d="M35.2,31c-0.3,0-0.5-0.1-0.7-0.3L14,8.7c-0.4-0.4-0.4-1,0.1-1.4c0.4-0.4,1-0.4,1.4,0.1l20.4,22   c0.4,0.4,0.4,1-0.1,1.4C35.7,30.9,35.5,31,35.2,31z" style="fill:#1A1A1A;"/>
</g>
<g>
	<path d="M14.2,30.4c-0.3,0-0.5-0.1-0.7-0.3c-0.4-0.4-0.4-1,0-1.4L35.1,7.9c0.4-0.4,1-0.4,1.4,0c0.4,0.4,0.4,1,0,1.4   L14.9,30.1C14.7,30.3,14.4,30.4,14.2,30.4z" style="fill:#1A1A1A;"/>
</g>
<g>
	<path d="M40,20H10c-0.6,0-1-0.4-1-1s0.4-1,1-1h30c0.6,0,1,0.4,1,1S40.6,20,40,20z" style="fill:#1A1A1A;"/>
</g>
<path d="M78.3,35c-9,0-16.3,7.4-16.3,16.5C62,62,66.6,68,74.7,68C83.8,68,93,58.6,93,49.4C93,40.4,87.5,35,78.3,35z   M74,61c-5.3,0-6-4.2-6-9.5v-0.1c0-5.2,4.3-9.5,9.5-9.4c5.3,0,8.5,2.9,8.5,8.2S80,61,74,61z" style="fill:#1A1A1A;"/>
<path d="M57,91H43C47.3,88.3,52.7,88.3,57,91z" style="fill:#FECE2F;"/>
<g>
	<path d="M57,93H43c-0.3,0-0.7-0.2-0.8-0.5s-0.2-0.6-0.1-0.9c0.6-1.5,0.9-3,0.9-4.6c-0.1-3-1.1-5.9-2.8-8.4   c-0.2-0.3-0.2-0.7-0.1-1c0.2-0.3,0.5-0.5,0.9-0.5h18c0.4,0,0.7,0.2,0.9,0.5c0.2,0.3,0.1,0.7-0.1,1C58.1,81.1,57.1,84,57,87   c0,1.6,0.3,3.1,0.9,4.6c0.1,0.3,0.1,0.7-0.1,0.9S57.3,93,57,93z M44.4,91h11.1c-0.4-1.3-0.6-2.6-0.6-4c0.1-2.8,0.9-5.5,2.2-8H42.8   c1.3,2.4,2.1,5.2,2.2,8C45,88.4,44.8,89.7,44.4,91z" style="fill:#1A1A1A;"/>
</g>
<path d="M71,98c0-2-12-2-14-6H43c-2,4-14,4-14,6v1h42V98z" style="fill:#FFFFFF;"/>
<path d="M71,98c0-2-15.7-2-21-2s-21,0-21,2v1h42V98z" style="fill:#FECE2F;"/>
<g>
	<path d="M71,100H29c-0.6,0-1-0.4-1-1v-1c0-1.7,2.3-2.2,5.7-2.9c3.2-0.7,7.5-1.7,8.4-3.5c0.2-0.3,0.5-0.6,0.9-0.6h14   c0.4,0,0.7,0.2,0.9,0.6c0.9,1.9,5.3,2.8,8.4,3.5c3.4,0.8,5.7,1.3,5.7,2.9v1C72,99.6,71.6,100,71,100z M30.4,98h39.2   c-0.8-0.3-2.4-0.7-3.7-1c-3.7-0.8-7.8-1.7-9.5-4H43.6c-1.7,2.3-5.8,3.2-9.5,4C32.8,97.3,31.2,97.7,30.4,98z" style="fill:#1A1A1A;"/>
</g>
<path d="M76,19H24c0,12.7,3.2,33.9,5.6,47.7c1.3,7.7,8,13.3,15.8,13.3h9.3c7.8,0,14.5-5.6,15.8-13.3  C72.8,52.9,76,31.7,76,19z" style="fill:#FFFFFF;"/>
<path d="M76,29H24c2,13,3.2,23.9,5.6,37.7c1.3,7.7,8,13.3,15.8,13.3h9.3c7.8,0,14.5-5.6,15.8-13.3  C72.8,52.9,74,38,76,29z" style="fill:#1A1A1A;"/>
<path d="M74.6,29c-1,7-5.8,22.2-7.6,33c-1.3,7.7-4.6,8-12.4,8h-9.3c-7.8,0-15-0.3-16.4-8c-1.9-10.8-3.7-18.6-4.6-33  H74.6z" style="fill:#FECE2F;"/>
<path d="M42.6,66.7C40.2,52.9,37,31.7,37,19h-9c0,12.7,3.2,33.9,5.6,47.7c1.3,7.7,8,13.3,15.8,13.3h9  C50.6,80,43.9,74.4,42.6,66.7z" style="fill:#FFFFFF;"/>
<path d="M58.4,80h-9c-7.1,0-13.3-4.6-15.3-11.4c2.6,1.1,5.9,1.3,9.5,1.4C46,76,51.8,80,58.4,80z" style="fill:#FECE2F;"/>
<g>
	<path d="M45.4,81c-8.3,0-15.3-5.9-16.7-14.1C26,51.9,23,31.5,23,19c0-0.6,0.4-1,1-1h52c0.6,0,1,0.4,1,1   c0,12.5-3,32.9-5.6,47.9C70,75.1,62.9,81,54.6,81c0,0,0,0,0,0H45.4C45.4,81,45.4,81,45.4,81z M25,20c0.2,12.4,3.1,32.1,5.6,46.5   C31.8,73.8,38,79,45.4,79c0,0,0,0,0,0h9.3c0,0,0,0,0,0c7.3,0,13.5-5.2,14.8-12.5C71.9,52.1,74.8,32.4,75,20H25z" style="fill:#1A1A1A;"/>
</g>
</g></g></g><!--ITEM 6--><g><defs><clipPath id="clip-path-id-crop-item-6"><rect transform="scale(0.22339622641509432 0.2222222222222222)" x="0.0" y="0.0" width="1442.0" height="9.0"/></clipPath><clipPath id="clip-path-id-viewbox-item-6"><rect x="0.0" y="0.0" width="355.2" height="2.0"/></clipPath></defs><g clip-path="url(#clip-path-id-crop-item-6)" transform="translate(1164.0 1292.0) rotate(0.0 795.0 4.5) scale(4.476351351351352 4.5)"><g clip-path="url(#clip-path-id-viewbox-item-6)" transform="translate(-0.0 -0.0)"><g>
	<path d="M314.6,2H1C0.4,2,0,1.6,0,1s0.4-1,1-1h313.6c0.6,0,1,0.4,1,1S315.1,2,314.6,2z" style="fill:#1A1A1A;"/>
	<path d="M354.2,2h-24c-0.6,0-1-0.4-1-1s0.4-1,1-1h24c0.6,0,1,0.4,1,1S354.7,2,354.2,2z" style="fill:#1A1A1A;"/>
</g>
</g></g></g><!--ITEM 7--><g><defs><clipPath id="clip-path-id-crop-item-7"><rect transform="scale(0.6369142185663925 0.6370584368151936)" x="0.0" y="0.0" width="851.0" height="1337.0"/></clipPath><clipPath id="clip-path-id-viewbox-item-7"><rect x="0.0" y="0.0" width="542.014" height="872.133"/></clipPath></defs><g clip-path="url(#clip-path-id-crop-item-7)" transform="translate(1618.0 624.0) rotate(0.0 425.5 684.5) scale(1.570070145789592 1.5697147109443168)"><g clip-path="url(#clip-path-id-viewbox-item-7)" transform="translate(-0.0 -0.0)"><g>
    <path d="M348.7,860.349s34.33-222.235,24.943-360.22-63.8-215.415-63.8-215.415l18.87-18.709,22.984,5.107s74.16,101.7,111.959,346.341c0,0,28.6,220.78,25.112,251.821C467.147,871.018,390.345,873.4,348.7,860.349Z" style="         fill: #fece2f;       "/>
    <g>
      <line x1="377.275" y1="125.496" x2="386.539" y2="96" style="         fill: #fece2f;       "/>
      <path d="M434.515,7.874c.546,1.677,8.133,68.753-32.974,173.507-7.854,20.02-12.336,27.293-24.135,49.873-4.956,9.485-43.958,33.418-48.69,34.751-.358.1-.548.153-.548.153,0-.261.01-.516.018-.782l-1.909,2.728-.1.136s0-.087-.012-.271c-.019-.561-.064-1.985-.13-4.149-.77-25.047-4.082-148.792,5.212-166.8a58.785,58.785,0,0,1,3.515-5.81c.016-.028.036-.05.052-.078,1.013-1.5,2.148-3.087,3.381-4.746C348.361,72.8,365.587,54.393,381.3,38.409c18.671-18.987,35.2-34.553,35.2-34.553a9.382,9.382,0,0,1,9.125-1.92,12.365,12.365,0,0,1,2.625,1.127l2.861,1.72c.293.18.581.364.854.565a11.69,11.69,0,0,1,1.688,1.5A11.925,11.925,0,0,1,434.515,7.874Z" style="         fill: #fece2f;       "/>
      <path d="M433.85,6.542c-.014.018-.077.12-.19.3-2.812,4.426-35.537,56.459-53.667,110.764-.636,1.914-1.255,3.817-1.856,5.734l-3.352,10.7q-8.451,26.984-16.61,51.154-1.941,5.775-3.868,11.371-13.271,38.638-25.591,69.438c-.459,1.155-.911,2.3-1.37,3.424l-1.069-1.325-.1.136s0-.087-.012-.271l-1.2-1.481q.54-1.327,1.073-2.668c13.864-34.788,28.752-77.183,44.372-126.789q.672-2.138,1.354-4.3l1.3-4.139,2.061-6.556a436.525,436.525,0,0,1,22.23-55.6A614.794,614.794,0,0,1,431.043,4.76l.929.588Z" style="         fill: #fece2f;       "/>
      <line x1="352.561" y1="196.47" x2="393.971" y2="198.724" style="         fill: #fece2f;       "/>
      <line x1="354.911" y1="185.48" x2="402.273" y2="179.561" style="         fill: #fece2f;       "/>
      <line x1="371.529" y1="138.14" x2="331.237" y2="97.148" style="         fill: #fece2f;       "/>
      <line x1="374.671" y1="130.538" x2="338.04" y2="86.193" style="         fill: #fece2f;       "/>
      <line x1="378.217" y1="117.752" x2="421.571" y2="114.2" style="         fill: #fece2f;       "/>
      <line x1="398.539" y1="68.528" x2="380.934" y2="38.588" style="         fill: #fece2f;       "/>
    </g>
    <path d="M326.035,263.82s35.829-83.985,54.5-155.985c20-44.667,51.441-102.487,51.441-102.487S423.281-7.5,408.531,10.5,342.744,75.919,334.762,91.21,328.781,101.5,325.531,150,326.035,263.82,326.035,263.82Z" style="         fill: #feffff;       "/>
    <g>
      <line x1="228.076" y1="138.435" x2="209.439" y2="115.546" style="         fill: #fece2f;       "/>
      <path d="M161.611,31.227a8.176,8.176,0,0,0-3.637,1.027l-2.407,1.34a8.511,8.511,0,0,0-3.948,9.644s23.305,92.809,37.192,116.26c11.1,18.743,127.031,94.624,127.031,94.624l-1.38-3.094.584.432s7.03-36.028,1.409-45.613C238.9,73.6,163.372,31.771,161.611,31.227Z" style="         fill: #fece2f;       "/>
      <line x1="271.982" y1="195.413" x2="289.706" y2="164.093" style="         fill: #fece2f;       "/>
      <line x1="263.619" y1="182.615" x2="277.683" y2="146.706" style="         fill: #fece2f;       "/>
      <line x1="235.378" y1="149.64" x2="190.442" y2="160.122" style="         fill: #fece2f;       "/>
      <line x1="230.866" y1="143.149" x2="183.281" y2="148.434" style="         fill: #fece2f;       "/>
      <line x1="222.606" y1="133.596" x2="237.065" y2="95.838" style="         fill: #fece2f;       "/>
      <line x1="193.526" y1="92.458" x2="163.584" y2="89.706" style="         fill: #fece2f;       "/>
    </g>
    <path d="M314.729,251.464s-70.106-96.5-91.033-116.378c-22.322-28.949-64.525-103.937-64.525-103.937s13.952,4.883,29.647,18.485c17.09,14.3,49.178,44.993,64.874,65.223s57.549,75.686,63.129,92.079C318.914,214.26,318.914,232.862,314.729,251.464Z" style="         fill: #feffff;       "/>
    <g>
      <path d="M5.058,185.62a7.631,7.631,0,0,0-2.172,3.128l-.952,2.586a8.042,8.042,0,0,0-.431,2.332,9.152,9.152,0,0,0,4.341,7.724S92.79,258.967,121.2,268.4c22.7,7.54,171.735-7.334,171.735-7.334l-3.384-1.533.788-.037s-20.818-32.632-32.384-36.523C98.377,169.289,6.874,184.919,5.058,185.62Z" style="         fill: #fece2f;       "/>
      <line x1="137.309" y1="226.843" x2="105.496" y2="220.886" style="         fill: #fece2f;       "/>
      <path d="M346.881,279.54l-1.37,2.37c-34.689-20.058-63.085-25.357-199.537-50.819l-11.535-2.153C71.06,217.107,3.538,189.086,2.877,188.816l1.031-2.535c.66.269,67.933,28.187,131.032,39.967l11.536,2.153C283.31,253.934,311.785,259.248,346.881,279.54Z" style="         fill: #fece2f;       "/>
      <line x1="214.502" y1="243.264" x2="205.749" y2="207.471" style="         fill: #fece2f;       "/>
      <line x1="198.652" y1="238.693" x2="184.857" y2="202.225" style="         fill: #fece2f;       "/>
      <line x1="151.418" y1="230.924" x2="122.966" y2="267.845" style="         fill: #fece2f;       "/>
      <line x1="143.018" y1="228.74" x2="108.617" y2="263.297" style="         fill: #fece2f;       "/>
      <line x1="129.353" y1="226.562" x2="115.706" y2="188.829" style="         fill: #fece2f;       "/>
      <line x1="74.971" y1="212.435" x2="50.043" y2="229.809" style="         fill: #fece2f;       "/>
    </g>
    <path d="M289.267,257.683S91.043,222.166,53.374,206.354c-25.112-8.836-49.411-18.6-49.411-18.6s-.7-2.616,2.267-2.616c8.371-.524,94-11.685,208.049,24.24,15,5.232,39.559,11.148,43.671,13.6C267.294,227.514,289.267,257.683,289.267,257.683Z" style="         fill: #feffff;       "/>
    <g>
      <line x1="137.309" y1="226.843" x2="105.496" y2="220.886" style="         fill: #fff;       "/>
      <path d="M148.461,272.031c-12.957,0-22.983-.628-27.738-2.207C92.454,260.435,8.573,205,5.016,202.642A10.617,10.617,0,0,1,0,193.623a9.484,9.484,0,0,1,.512-2.778l.962-2.615A9.062,9.062,0,0,1,4.065,184.5l.2-.178.25-.1c1.384-.536,25.405-4.5,67.922-1.816,39.1,2.466,103.1,11.259,185.99,39.146,11.93,4.014,32.308,35.788,33.17,37.138l.113.179,6.923,3.137-5.556.553C288.256,263.04,197.467,272.031,148.461,272.031ZM5.783,186.992A6.006,6.006,0,0,0,4.3,189.258l-.956,2.594A6.5,6.5,0,0,0,3,193.719a7.639,7.639,0,0,0,3.674,6.423c.863.573,87.1,57.572,114.992,66.834,19.671,6.534,138.241-4.263,165.526-6.862l-3.929-1.78,4.376-.211c-4.856-7.306-20.92-30.616-30.169-33.729C101.463,171.909,11.167,186.006,5.783,186.992Z" style="         fill: #1a1a1a;       "/>
      <path d="M346.881,279.54l-1.37,2.37c-34.689-20.058-63.085-25.357-199.537-50.819l-11.535-2.153C71.06,217.107,3.538,189.086,2.877,188.816l1.031-2.535c.66.269,67.933,28.187,131.032,39.967l11.536,2.153C283.31,253.934,311.785,259.248,346.881,279.54Z" style="         fill: #1a1a1a;       "/>
      <rect x="208.625" y="206.943" width="3" height="36.848" transform="translate(-47.52 56.365) rotate(-13.742)" style="         fill: #1a1a1a;       "/>
      <rect x="190.255" y="200.964" width="2.999" height="38.989" transform="translate(-65.598 82.107) rotate(-20.721)" style="         fill: #1a1a1a;       "/>
      <rect x="113.886" y="247.885" width="46.612" height="3" transform="translate(-144.074 205.75) rotate(-52.365)" style="         fill: #1a1a1a;       "/>
      <rect x="101.437" y="244.518" width="48.761" height="3" transform="translate(-137.286 161.568) rotate(-45.119)" style="         fill: #1a1a1a;       "/>
      <rect x="121.03" y="187.633" width="3" height="40.125" transform="translate(-63.331 54.05) rotate(-19.882)" style="         fill: #1a1a1a;       "/>
      <rect x="47.315" y="219.621" width="30.385" height="3" transform="translate(-115.234 75.485) rotate(-34.885)" style="         fill: #1a1a1a;       "/>
    </g>
    <g>
      <path d="M341.337,252.1l-1.877-2.724c-16.075,28.207-33.6,37.8-117.841,83.883l-7.121,3.9c-39.124,21.412-82.825,69.238-83.176,69.639l1.709,2.962c.35-.4,43.92-48.073,82.871-69.391l7.121-3.9C307.5,290.256,325.074,280.639,341.337,252.1Z" style="         fill: #fece2f;       "/>
      <path d="M134.085,410.434c-1-.929-4.4-6.59-4.4-6.59-.477-.887,38.32-90.675,76.368-114.855,32.059-20.374,108.521-8.651,108.521-8.651.188-.015-5.959,44.314-12.418,50.323C213.04,413.578,135.615,411.082,134.085,410.434Z" style="         fill: #fece2f;       "/>
      <line x1="226.741" y1="333.063" x2="195.675" y2="297.642" style="         fill: #fece2f;       "/>
      <line x1="248.907" y1="318.16" x2="229.636" y2="279.325" style="         fill: #fece2f;       "/>
      <line x1="238.172" y1="327.782" x2="240.15" y2="377.256" style="         fill: #fece2f;       "/>
    </g>
    <path d="M140.337,397.952s40.459-64.641,63.246-86.5,94.578-21.508,94.578-21.508c6.1-3.837,13.08-9.068,13.08-9.068s-65.223-12.9-102.891,5.929c-18.834,15.695-45.727,40.5-78.669,117.037,3.332,3.293,3.1,4.572,3.1,4.572Z" style="         fill: #feffff;       "/>
    <g>
      <path d="M487.383,825.669c-.314-.021-.628-.041-.949-.055-23.78-1.305-51.424-1.682-78.978-1.682-19.664,0-37.271.2-52.506.782l-1.632,8.092q6.393-.377,13.728-.621c13.045-.433,28.245-.579,45.321-.579,22.894,0,45.879.258,65.641,1.137,3.439.153,6.787.321,10.017.516Q487.722,829.575,487.383,825.669Z" style="         fill: #fece2f;       "/>
      <path d="M489.662,834.86l-1.728-.1c-2.914-.176-6.183-.345-9.993-.515-17.191-.764-38.64-1.136-65.574-1.136-18.99,0-33.375.184-45.271.578-4.752.157-9.357.365-13.69.62l-1.944.115,2.252-11.157,1.179-.046c13.877-.533,30.58-.782,52.563-.782,32.544,0,58.4.55,79.061,1.682.318.015.644.036.969.059l1.282.087.11,1.281q.334,3.9.642,7.594Zm-77.295-4.755c26.979,0,48.472.373,65.708,1.14,3.091.138,5.829.274,8.312.415q-.187-2.244-.388-4.568c-20.553-1.117-46.247-1.659-78.543-1.659-21.324,0-37.664.234-51.269.735l-1.015,5.03c3.783-.207,7.752-.379,11.825-.513C378.926,830.29,393.343,830.105,412.367,830.105Z" style="         fill: #1a1a1a;       "/>
    </g>
    <g>
      <path d="M332.531,267.126c-2.94,2.82-14.5,12.955-18.27,15.816-14.96,11.4-37.5,24.079-76.07,45.229q-7.2,3.945-15.17,8.3l-7.12,3.9c-37.33,20.42-78.9,65.071-82.61,69.1a3.652,3.652,0,0,0-.26.29l-1.71-2.97c.01-.01.04-.05.11-.12,2.4-2.63,44.91-48.63,83.07-69.51l7.12-3.9c1.21-.66,2.4-1.31,3.58-1.96,45.48-24.89,70.89-38.88,87.23-51.26,3.63-2.74,13-13.859,15.85-16.54Z" style="         fill: #1a1a1a;       "/>
      <path d="M137.5,412.1a16.132,16.132,0,0,1-4-.29l-.241-.1-.192-.178c-1.078-1-3.848-5.547-4.672-6.918-.379-.7-.705-1.308,6.308-16.327,3.675-7.872,9.678-20.139,17.408-33.874,13.159-23.384,33.059-53.936,53.134-66.692,31.717-20.158,104.349-9.654,109.38-8.895l.891-.069.43.976c.529,1.2-3,20.624-3.647,23.927-4.717,23.994-8.035,27.082-9.125,28.1-46.427,43.2-89.494,62.756-117.448,71.555C162.6,410.6,145.067,412.1,137.5,412.1Zm-2.655-3.068c3.394.324,22.749.164,51.236-8.981,27.367-8.787,69.542-28.148,115.05-70.492,5.248-4.883,10.879-40.235,11.814-47.943a358.224,358.224,0,0,0-40.673-3.1c-29.948-.487-52.563,3.564-65.417,11.733-35.831,22.77-72.916,105.706-75.564,113.355C132.593,405.754,134.138,408.145,134.844,409.036Zm-.373-.049Z" style="         fill: #1a1a1a;       "/>
      <rect x="209.708" y="291.795" width="3.001" height="47.114" transform="translate(-155.515 217.525) rotate(-41.251)" style="         fill: #1a1a1a;       "/>
      <rect x="237.771" y="277.066" width="3" height="43.353" transform="translate(-107.855 137.495) rotate(-26.392)" style="         fill: #1a1a1a;       "/>
      <rect x="237.661" y="327.762" width="3" height="49.513" transform="translate(-13.895 9.838) rotate(-2.29)" style="         fill: #1a1a1a;       "/>
    </g>
    <g>
      <line x1="377.275" y1="125.496" x2="386.539" y2="96" style="         fill: none;       "/>
      <path d="M324.892,272.51l-.226-4.481c-.019-.571-.064-2-.131-4.163-.429-13.965-1.4-50.309-1.168-86.1.3-46.207,2.5-73.606,6.546-81.438a59.925,59.925,0,0,1,3.569-5.9l.089-.135c.982-1.453,2.132-3.068,3.421-4.8,8.62-11.524,23.168-27.718,43.24-48.134,18.478-18.79,35.081-34.438,35.247-34.593A10.833,10.833,0,0,1,426.055.5,13.923,13.923,0,0,1,429,1.76l2.89,1.738c.342.21.663.416.969.642a13.038,13.038,0,0,1,1.895,1.677,13.652,13.652,0,0,1,.969,1.169l.143.2.074.228c.161.5,9.333,66.631-33,174.521-6.406,16.331-10.613,24.282-18.25,38.716-1.773,3.351-3.732,7.056-5.952,11.3-5.137,9.832-44.305,34-49.612,35.5-.377.109-.58.161-.58.161l-.109.029-1.05,1.492Zm4.95-12.118-.112,3.579c8.267-3.954,42-25.087,46.346-33.412,2.222-4.251,4.185-7.961,5.959-11.315,7.586-14.339,11.765-22.237,18.109-38.41C440.706,77.469,433.675,12.745,433.1,8.5c-.167-.212-.35-.424-.544-.634a10.14,10.14,0,0,0-1.462-1.3c-.253-.185-.507-.346-.765-.506l-2.848-1.712a10.752,10.752,0,0,0-2.278-.974,7.855,7.855,0,0,0-7.675,1.577c-.16.152-16.724,15.763-35.16,34.51-19.978,20.32-34.437,36.41-42.975,47.823-1.244,1.675-2.358,3.236-3.307,4.64l-.084.127a57.317,57.317,0,0,0-3.426,5.657c-2.628,5.093-5.84,23.121-6.212,80.082-.234,35.668.734,71.9,1.165,85.905Z" style="         fill: #1a1a1a;       "/>
      <path d="M433.85,6.542c-.014.018-.077.12-.19.3-2.812,4.426-35.537,56.459-53.667,110.764-.636,1.914-1.255,3.817-1.856,5.734l-3.352,10.7q-8.451,26.984-16.61,51.154-1.941,5.775-3.868,11.371-13.271,38.638-25.591,69.438c-.459,1.155-.911,2.3-1.37,3.424l-1.069-1.325-.1.136s0-.087-.012-.271l-1.2-1.481q.54-1.327,1.073-2.668c13.864-34.788,28.752-77.183,44.372-126.789q.672-2.138,1.354-4.3l1.3-4.139,2.061-6.556a436.525,436.525,0,0,1,22.23-55.6A614.794,614.794,0,0,1,431.043,4.76l.929.588Z" style="         fill: #1a1a1a;       "/>
      <rect x="371.766" y="176.862" width="3.001" height="41.471" transform="translate(155.666 559.567) rotate(-86.883)" style="         fill: #1a1a1a;       "/>
      <rect x="354.727" y="181.021" width="47.731" height="3" transform="translate(-19.715 48.368) rotate(-7.125)" style="         fill: #1a1a1a;       "/>
      <rect x="349.883" y="88.904" width="3" height="57.479" transform="translate(18.318 280.056) rotate(-44.506)" style="         fill: #1a1a1a;       "/>
      <line x1="338.04" y1="86.193" x2="374.671" y2="130.538" style="         fill: #feffff;       "/>
      <rect x="378.144" y="114.476" width="43.5" height="3" transform="translate(-8.138 33.058) rotate(-4.686)" style="         fill: #1a1a1a;       "/>
      <rect x="388.236" y="36.191" width="3" height="34.732" transform="matrix(0.862, -0.507, 0.507, 0.862, 26.632, 204.945)" style="         fill: #1a1a1a;       "/>
    </g>
    <g>
      <line x1="228.076" y1="138.435" x2="209.439" y2="115.546" style="         fill: #fff;       "/>
      <path d="M319.292,258.173l-4.271-2.8c-4.746-3.106-116.351-76.288-127.5-95.114C173.682,136.892,151.118,47.4,150.164,43.6a10.013,10.013,0,0,1,4.65-11.306l2.43-1.354a9.647,9.647,0,0,1,4.294-1.215l.264-.013.253.079c1.345.415,21.12,11.519,49.582,38.261,26.162,24.582,65.809,68.309,106.112,137.033,5.841,9.96-.939,45.166-1.231,46.659l-.028.145ZM161.348,32.749a6.6,6.6,0,0,0-2.638.811L156.3,34.905a7.016,7.016,0,0,0-3.221,7.973c.232.921,23.409,92.859,37.027,115.855,9.6,16.209,101.236,77.393,122.278,91.31l-1.623-3.637,3.255,2.419c2.017-11.283,5.213-35.29,1.149-42.22-39.85-67.951-79.015-111.29-104.853-135.68C183.7,45.808,164.4,34.229,161.348,32.749Z" style="         fill: #1a1a1a;       "/>
      <path d="M324.438,273.661l-2.559.938c-11.248-34.893-10.487-29.9-90.484-128.006l-6.762-8.294c-37.154-45.573-66.421-105.418-66.711-106l2.429-1.257c.29.581,29.449,60.206,66.438,105.578l6.763,8.294C313.773,243.3,313.058,238.358,324.438,273.661Z" style="         fill: #1a1a1a;       "/>
      <rect x="262.851" y="178.253" width="35.987" height="3.001" transform="translate(-13.949 335.579) rotate(-60.482)" style="         fill: #1a1a1a;       "/>
      <rect x="251.369" y="163.161" width="38.565" height="2.999" transform="translate(18.636 356.634) rotate(-68.614)" style="         fill: #1a1a1a;       "/>
      <rect x="189.839" y="153.381" width="46.142" height="3" transform="translate(-29.62 52.421) rotate(-13.132)" style="         fill: #1a1a1a;       "/>
      <rect x="183.135" y="144.292" width="47.878" height="3.001" transform="translate(-14.82 23.735) rotate(-6.334)" style="         fill: #1a1a1a;       "/>
      <rect x="209.619" y="113.217" width="40.433" height="3" transform="translate(40.546 288.366) rotate(-69.058)" style="         fill: #1a1a1a;       "/>
      <rect x="177.054" y="76.047" width="3.001" height="30.069" transform="translate(71.514 260.551) rotate(-84.749)" style="         fill: #1a1a1a;       "/>
    </g>
    <path d="M53.031,376.876l-.23.43h-.01C52.091,377.676,52.091,377.6,53.031,376.876Z" style="         fill: #fff;       "/>
    <g>
      <line x1="442.352" y1="260.397" x2="464.882" y2="257.528" style="         fill: #fece2f;       "/>
      <path d="M539.723,257.744a4.076,4.076,0,0,0,.74-2.188l.051-1.644a4.112,4.112,0,0,0-.24-1.4,6.1,6.1,0,0,0-4.632-3.5s-70.89-15.433-91.934-15.19C426.889,234.013,331,271.57,331,271.57l2.6.2-.517.175s21.225,14.318,29.805,14.247C481.262,285.216,538.671,258.5,539.723,257.744Z" style="         fill: #fece2f;       "/>
      <path d="M435.623,259.7l8.168-1.045c44.875-5.737,96.162-3.161,96.663-3.138l-.115,1.63c-.5-.022-51.6-2.589-96.275,3.123l-8.168,1.044" style="         fill: #fece2f;       "/>
      <path d="M535.642,249.009s-55.557-14.581-91.934-15.19" style="         fill: #fece2f;       "/>
      <line x1="387.243" y1="266.252" x2="401.146" y2="284.713" style="         fill: #fece2f;       "/>
      <line x1="398.236" y1="264.61" x2="416.041" y2="283.905" style="         fill: #fece2f;       "/>
      <line x1="432.036" y1="260.858" x2="442.654" y2="234.479" style="         fill: #fece2f;       "/>
      <line x1="438.122" y1="260.445" x2="453.236" y2="234.234" style="         fill: #fece2f;       "/>
      <line x1="447.714" y1="258.998" x2="466.097" y2="276.947" style="         fill: #fece2f;       "/>
      <line x1="487.116" y1="256.315" x2="501.193" y2="240.745" style="         fill: #fece2f;       "/>
    </g>
    <path d="M333.6,271.772s82.475-9.315,104.687-11.638" style="         fill: #fece2f;       "/>
    <g>
      <line x1="442.352" y1="260.397" x2="464.882" y2="257.528" style="         fill: #fff;       "/>
      <path d="M362.828,287.694c-8.981,0-29.706-13.91-30.585-14.5l-.033-.021-7.849-.611,6.09-2.384c3.926-1.538,96.34-37.659,113.24-37.855.169,0,.344,0,.519,0,21.555,0,88.873,14.6,91.751,15.228A7.553,7.553,0,0,1,541.684,252a5.61,5.61,0,0,1,.33,1.92l-.051,1.678a5.522,5.522,0,0,1-1,2.981l-.151.226-.22.157c-.387.275-57.749,27.739-177.7,28.729Zm-26.336-15.305c7.095,4.539,20.46,12.305,26.328,12.305h.053c115.42-.953,171.521-26.059,175.787-28.089a2.433,2.433,0,0,0,.3-1.085l.051-1.654a2.589,2.589,0,0,0-.155-.852,4.689,4.689,0,0,0-3.541-2.539c-.7-.153-69.869-15.159-91.1-15.159-.167,0-.328,0-.489,0-13.912.161-84.628,27.015-106.038,35.267l3.415.265Z" style="         fill: #1a1a1a;       "/>
      <path d="M435.623,259.7l8.168-1.045c44.875-5.737,96.162-3.161,96.663-3.138l-.115,1.63c-.5-.022-51.6-2.589-96.275,3.123l-8.168,1.044" style="         fill: #1a1a1a;       "/>
      <path d="M535.261,250.461c-.554-.146-55.8-14.543-91.577-15.142l.049-3c36.14.606,91.732,15.094,92.289,15.239Z" style="         fill: #1a1a1a;       "/>
      <rect x="392.694" y="263.927" width="3" height="23.112" transform="translate(-86.418 292.559) rotate(-36.983)" style="         fill: #1a1a1a;       "/>
      <rect x="405.638" y="261.13" width="3.001" height="26.255" transform="translate(-78.062 348.818) rotate(-42.701)" style="         fill: #1a1a1a;       "/>
      <rect x="423.127" y="246.168" width="28.437" height="3.001" transform="translate(44.207 560.802) rotate(-68.06)" style="         fill: #1a1a1a;       "/>
      <rect x="430.551" y="245.84" width="30.257" height="3" transform="translate(8.81 509.926) rotate(-60.038)" style="         fill: #1a1a1a;       "/>
      <rect x="455.406" y="255.126" width="3" height="25.692" transform="translate(-54.03 407.676) rotate(-45.684)" style="         fill: #1a1a1a;       "/>
      <rect x="483.659" y="247.03" width="20.991" height="3" transform="translate(-21.58 448.464) rotate(-47.889)" style="         fill: #1a1a1a;       "/>
    </g>
    <path d="M333.766,273.263l-.337-2.981c.825-.094,82.735-9.343,104.7-11.64l.313,2.984C416.489,263.922,334.591,273.17,333.766,273.263Z" style="         fill: #1a1a1a;       "/>
    <g>
      <path d="M396.923,869.449c-21.1-1.158-38.708-2.944-49.758-6.1l.119-.6c13.254,2.3,27.938,4.339,43.1,6.006C392.556,868.988,394.732,869.225,396.923,869.449Z" style="         fill: #1a1a1a;       "/>
      <path d="M396.841,870.946c-24.1-1.322-40.017-3.279-50.088-6.159l-1.327-.38.671-3.39,1.444.25c13.166,2.287,27.637,4.3,43.01,5.993q3.246.355,6.524.7Z" style="         fill: #1a1a1a;       "/>
    </g>
    <g>
      <path d="M489.031,869.668c-1.3.056-89-1.258-101.167-2.667-1.747-.2-37.818-6.791-39.5-7,5.555-24.861,9.108-61.541,12.5-84.833,36.648,8.224,89.227-64.206,73.866-113.2-13.191-42.105,12.426-54.892,32.417-23.934C480.018,704.112,486.864,828.835,489.031,869.668Z" style="         fill: #1a1a1a;       "/>
      <path d="M489.055,871.167c-2.19,0-89.158-1.262-101.364-2.676-.895-.1-8.987-1.555-21.232-3.756-8.613-1.55-17.52-3.151-18.281-3.246l-1.638-.2.36-1.611c3.851-17.235,6.738-40.193,9.286-60.448,1.111-8.834,2.161-17.179,3.194-24.274l.233-1.6,1.58.354c13.074,2.944,29.227-4.781,44.31-21.173a122.766,122.766,0,0,0,25.424-43.049c5.8-17.237,6.622-33.513,2.372-47.068-6.493-20.727-4.231-37.147,5.764-41.833,8.674-4.068,20.192,2.463,29.344,16.637l.157.243.055.283c8.763,44.986,16.134,122.99,21.91,231.845l.08,1.512-1.514.066ZM350.168,858.778c2.707.468,8.555,1.518,16.822,3,9.458,1.7,20.177,3.628,21.047,3.729,11.629,1.347,87.63,2.491,99.411,2.641C481.705,760.5,474.4,683.278,465.73,638.6c-8.259-12.671-18.206-18.673-25.394-15.306-9.726,4.561-9.105,22.482-4.174,38.22,4.44,14.163,3.613,31.081-2.392,48.922a125.827,125.827,0,0,1-26.059,44.123c-15.241,16.564-31.748,24.633-45.587,22.377-.957,6.72-1.933,14.481-2.961,22.661C356.682,819.323,353.88,841.6,350.168,858.778Z" style="         fill: #1a1a1a;       "/>
    </g>
    <g>
      <path d="M455.979,580.845c-6.836,1.06-19.386,1.486-21-9.278-1.765-11.81,1.932-29.053,13.351-26.73,0,.006.007.006.007.006q.942,4.229,1.863,8.448.555,2.542,1.1,5.078,1.016,4.719,2,9.41Q454.664,574.329,455.979,580.845Z" style="         fill: #1a1a1a;       "/>
      <path d="M449.7,582.862c-4.113,0-8.391-.736-11.579-3.081a11.645,11.645,0,0,1-4.622-7.992c-1.318-8.821.267-20.522,5.849-25.819a10.041,10.041,0,0,1,9.167-2.626h1.028l.049.218.241.049v1.037q.928,4.165,1.835,8.323.447,2.044.882,4.085l.215,1q1.016,4.723,2,9.418,1.371,6.556,2.688,13.077l.309,1.538-1.55.24A42.932,42.932,0,0,1,449.7,582.862Zm-3.411-36.74a6.853,6.853,0,0,0-4.876,2.024c-4.787,4.542-6.122,15.343-4.947,23.2a8.637,8.637,0,0,0,3.432,6.018c3.843,2.827,10.095,2.71,14.295,2.211q-1.158-5.726-2.368-11.488-.984-4.694-1.993-9.4l-.215-1q-.436-2.032-.879-4.075-.793-3.628-1.6-7.266h-.3v-.2C446.654,546.129,446.471,546.122,446.289,546.122Z" style="         fill: #1a1a1a;       "/>
    </g>
    <g>
      <path d="M373.643,500.129c17.969-.118,59.408-3.794,35.955,11.992-36.274,24.414-4.854,96.123-33.309,85.8,0-.017-.175-.523-.175-.523-.538-7.481.041-14.109-.465-21.566-.3-4.5.289-13.429,0-17.9-.539-8.341.4-14.906-.087-23.2Q374.538,517.371,373.643,500.129Z" style="         fill: #1a1a1a;       "/>
      <path d="M381.217,600.434a16.164,16.164,0,0,1-5.44-1.1l-1.141-.414.12-.86-.057-.163-.066-.189-.014-.2c-.278-3.854-.263-7.52-.249-11.065.014-3.387.028-6.889-.217-10.508-.158-2.337-.081-5.823-.007-9.194.072-3.227.145-6.564.006-8.715-.278-4.308-.166-8.188-.058-11.94.1-3.567.208-7.256-.03-11.272-.761-12.9-1.389-24.221-1.919-34.607l-.08-1.565,1.568-.011c2.51-.017,5.513-.1,8.692-.2,19.735-.572,33.841-.556,35.6,4.935.893,2.778-1.489,5.955-7.494,10-18.538,12.478-18.771,37.768-18.958,58.088-.123,13.335-.22,23.866-5.612,27.609A7.925,7.925,0,0,1,381.217,600.434Zm-3.641-3.659c2.908.932,5.066.871,6.578-.177,4.117-2.858,4.213-13.2,4.323-25.172.184-19.915.435-47.191,20.283-60.549,6.6-4.441,6.416-6.271,6.313-6.592-1.21-3.768-21.67-3.176-32.66-2.853-2.563.074-5.011.145-7.192.179.513,9.95,1.115,20.774,1.838,33.025.246,4.146.138,7.9.033,11.535-.106,3.682-.215,7.491.054,11.66.147,2.28.072,5.684,0,8.975s-.148,6.721,0,8.925c.252,3.726.238,7.283.224,10.722C377.357,589.782,377.343,593.22,377.576,596.775Z" style="         fill: #1a1a1a;       "/>
    </g>
    <g>
      <path d="M403.319,379.351s-46.836-15.72-7.673,39.761c11.161,15.811,33.251,39.064,33.251,39.064S417.968,405.393,403.319,379.351Z" style="         fill: #1a1a1a;       "/>
      <path d="M431.432,463.022l-3.623-3.813c-.221-.234-22.292-23.513-33.388-39.232-14.338-20.311-18.919-33.393-14.006-39.993,5.833-7.835,22.668-2.3,23.381-2.055l.548.183.283.5c14.594,25.946,25.629,78.727,25.739,79.257ZM391.258,378.8c-3.5,0-6.772.735-8.438,2.975-2.736,3.679-2.52,12.992,14.052,36.469,8.224,11.65,22.6,27.562,29.379,34.9C423.08,439.214,413.81,401.415,402.3,380.6A40.383,40.383,0,0,0,391.258,378.8Z" style="         fill: #1a1a1a;       "/>
    </g>
    <path d="M446.38,872.133c-31.352,0-71.643-2.054-98.129-10.352l-1.23-.386.2-1.274c.342-2.222,34.2-223.653,24.928-359.891-4.832-71.024-21.846-125.6-35.269-158.881-14.545-36.064-28.123-55.581-28.259-55.773l-.727-1.036,20.351-20.176,24.336,5.405.334.458c.186.256,18.912,26.211,41.978,81.739,21.258,51.176,50.7,138.736,70.252,265.258,1.173,9.058,28.588,221.35,25.12,252.218l-.138,1.228-1.232.1C481.71,871.349,465.751,872.133,446.38,872.133Zm-96-12.837c41.753,12.575,116.514,10.089,137.017,8.58,2.612-34.716-24.94-248.052-25.223-250.231-19.483-126.1-48.815-213.374-69.989-264.378C370.9,302,353.377,276.123,350.809,272.45l-21.618-4.8L311.784,284.9c3,4.533,15.061,23.576,27.831,55.212,13.522,33.5,30.662,88.436,35.525,159.911,4.856,71.383-2.19,165.621-8.956,232.108C359.47,798.113,351.7,850.544,350.377,859.3Z" style="         fill: #1a1a1a;       "/>
  </g>
</g></g></g><!--ITEM 8--><g><defs><clipPath id="clip-path-id-viewbox-item-8"><rect x="0.0" y="0.0" width="510.09" height="549.01"/></clipPath></defs><g transform="translate(174.0 716.0) rotate(0.0 832.5 895.5) scale(3.26412985943657 3.2622356605526313)"><g clip-path="url(#clip-path-id-viewbox-item-8)" transform="translate(-0.0 -0.0)"><title>coffee_break__seating_man</title><polygon points="38.28 117.8 36.24 106.7 64.13 101.72 65.09 108.99 38.28 117.8" fill="#000000"/><path d="M38.28,118.8a.91.91,0,0,1-.51-.14,1,1,0,0,1-.47-.68l-2-11.1a1,1,0,0,1,.16-.75,1,1,0,0,1,.65-.42l27.89-5a1,1,0,0,1,.77.18,1,1,0,0,1,.4.68l1,7.27a1,1,0,0,1-.68,1.08l-26.81,8.81A.84.84,0,0,1,38.28,118.8Zm-.88-11.3,1.66,9L64,108.3l-.71-5.41Z" fill="#000000"/><rect x="132.44" y="386.64" width="16.65" height="108.14" style="fill:#fece2f;"/><path d="M149.09,495.79H132.44a1,1,0,0,1-1-1V386.64a1,1,0,0,1,1-1h16.65a1,1,0,0,1,1,1V494.79A1,1,0,0,1,149.09,495.79Zm-15.65-2h14.65V387.64H133.44Z" fill="#000000"/><path d="M150.41,489.42H131.09L27.46,528.3c-17.11,4.36,47.43,18.07,112.36,18.81,66.73.76,133.86-11.61,113.2-18.81Z" style="fill:#fece2f;"/><path d="M286,345.62s-69.83,61.7-191.2,44.07C-11,374.32-9.47,230.4,61.59,189.68,152.11,137.81,383.65,270.36,286,345.62Z" style="fill:#fece2f;"/><path d="M12.52,269.65s-8.17,47.49,19.15,83.74,72.77,37.53,89.11,38.81C90.78,387.86,78,381,71.63,372.29s-8.94-10.73-15.07-8.43S41,361.31,35.63,340.12s-6.64-23.75-12.51-24S11,302.33,12.52,269.65Z" fill="#000000"/><path d="M137.54,393.82a297.62,297.62,0,0,1-42.87-3.14c-23-3.34-42-12.75-56.54-28C25.23,349.2,16.38,331.33,12.51,311a130.87,130.87,0,0,1,6.28-70c8.75-23,23.77-41.55,42.3-52.17,29.29-16.78,75.57-15.81,127,2.68,48,17.24,90.11,46.43,110,76.17,9.46,14.17,13.59,27.89,12.3,40.78-1.42,14.15-9.4,26.92-23.7,37.95-.81.7-18.53,15.91-50.35,28.8C213.6,384.39,180,393.82,137.54,393.82Zm-24.6-214.94c-19.9,0-37.26,3.88-50.85,11.67-36.82,21.09-56.84,71.6-47.61,120.1C22.73,354,52.07,382.47,95,388.7c62.43,9.07,110.86-3.33,140.5-15.32,32.13-13,49.72-28.35,49.89-28.51l0,0c33.7-26,24.58-55.7,11-76.06-19.63-29.4-61.38-58.29-109-75.4C160.57,183.72,135.17,178.88,112.94,178.88Z" fill="#000000"/><path d="M127.93,490.5s-62.3,28.6-60,36.51,8.93,14.55,25.53,17.62c-31.41-2-70-10.47-68.94-15.32C31.93,526.75,127.93,490.5,127.93,490.5Z" style="fill:#fff;"/><path d="M145.66,548.14c-2,0-3.91,0-5.85,0a559.28,559.28,0,0,1-79-6.67c-13.63-2.19-36.58-6.56-37.13-11.16-.24-1.95,2.49-2.69,3.47-2.94l103.57-38.85a.92.92,0,0,1,.36-.07h19.32a1.15,1.15,0,0,1,.36.07l102.6,38.87c1.19.41,4.87,1.7,4.42,4.27-1,5.49-24.33,9.61-38.17,11.57A549.5,549.5,0,0,1,145.66,548.14Zm-120-18c1.9,4.24,53.53,15.32,114.13,16,61.93.7,115-9.38,116-14.83.05-.33-.54-1.14-3.13-2L150.23,490.42h-19L27.82,529.23a.23.23,0,0,1-.11,0A4.54,4.54,0,0,0,25.7,530.1Z" fill="#000000"/><path d="M132.14,394s11.55,1.91,16.5,19.53c.33-8.81,1-20.3,1-20.3Z" fill="#000000"/><path d="M66.87,22.82C61.22,14.66,26-4.69,32.9,55a1.25,1.25,0,0,0,0,.14h-.12a6.71,6.71,0,1,0,0,13.42,6.84,6.84,0,0,0,2.89-.65c4.61,12.67,11.18,56.23,11.18,56.23l31.41,3.06L66.9,89.47a34.73,34.73,0,0,0,6.83-1.18C104.92,79,72.53,31,66.87,22.82Z" style="fill:#fece2f;"/><path d="M78.27,128.18h-.1l-31.41-3.07a1,1,0,0,1-.89-.84c-.06-.43-6.29-41.53-10.8-55.08a7.64,7.64,0,0,1-2.28.35,7.71,7.71,0,0,1-1-15.36c-3.23-29.29,4.09-38.5,10.84-41,9.81-3.69,22,4.72,25.06,9.13h0c7.73,11.17,25.08,39,19.22,55.66-2,5.55-6.29,9.36-12.9,11.33a32.89,32.89,0,0,1-5.81,1.1l11,36.54a1,1,0,0,1-1,1.29Zm-30.54-5L76.88,126,65.94,89.76a1,1,0,0,1,.13-.84,1,1,0,0,1,.74-.44,34.45,34.45,0,0,0,6.64-1.15c6-1.77,9.85-5.16,11.58-10.07C90.75,61,72,31.91,66.05,23.39h0c-2.7-3.9-14-11.67-22.7-8.39-6.15,2.32-12.79,11.12-9.46,39.88v.18a1,1,0,0,1-.27.76,1.07,1.07,0,0,1-.75.31h-.11A5.71,5.71,0,1,0,35.25,67a1,1,0,0,1,.81,0,.93.93,0,0,1,.55.58C40.93,79.39,46.8,117.12,47.73,123.2Z" fill="#000000"/><path d="M74.44,21.86S75.58,20,76.35,6.92c.94-16-35.62,5.37-46.72,5.75C18.78,13,14,38.43,28.39,54.48a2.61,2.61,0,0,0,2.37.82,9.1,9.1,0,0,1,7.14,2.09c4.82,3.86,4.08-.35,3.19-2.27-1.09-2.33-1.69-12.4.79-20.24C46.86,19.18,69.07,37.56,74.44,21.86Z" fill="#000000"/><path d="M40.87,60c-1.19,0-2.56-1-3.6-1.79a8.09,8.09,0,0,0-6.35-1.89,3.6,3.6,0,0,1-3.28-1.13c-9.85-11-11-26.64-7.13-35.78,2-4.77,5.34-7.57,9.08-7.7,3.5-.12,9.91-2.52,16.7-5,11.76-4.4,23.92-8.94,28.89-5.27C76.77,2.52,77.5,4.42,77.35,7c-.68,11.63-1.67,14.59-2,15.27-3,8.54-10.66,7.78-17.45,7.12s-12.83-1.26-15.07,5.81C40.37,43,41.05,52.68,42,54.7c.07.15,1.65,3.59,0,4.89A1.79,1.79,0,0,1,40.87,60ZM32,54.2a10.3,10.3,0,0,1,6.51,2.41A6.4,6.4,0,0,0,40.73,58a5.22,5.22,0,0,0-.55-2.4c-1.23-2.65-1.75-13.07.75-21,2.73-8.62,10.4-7.87,17.17-7.2,6.95.67,13,1.26,15.39-5.84a.77.77,0,0,1,.07-.16c.07-.15,1.09-2.52,1.79-14.51C75.46,5,75,3.71,74,3c-4.1-3-16.8,1.73-27,5.54-6.94,2.6-13.5,5-17.32,5.18-3,.1-5.57,2.4-7.31,6.48-3.65,8.58-2.52,23.29,6.78,33.66a1.62,1.62,0,0,0,1.47.5A9.18,9.18,0,0,1,32,54.2Z" fill="#000000"/><path d="M376.15,267.79s54.44,38.68,69,39.9,7.6-.61,7.6-.61l-19,25.17-77-41.4Z" fill="#000000"/><path d="M433.75,333.25a1,1,0,0,1-.47-.12l-77-41.4a1,1,0,0,1-.29-1.52l19.4-23.07a1,1,0,0,1,1.35-.17c.54.39,54.38,38.54,68.5,39.73,3,.25,4.95.36,6.25.4l.47-.62a1,1,0,0,1,1.05-.37c1.26.34,2.59.78,2.39,1.9-.11.66-.19,1.1-2.93,1.11l-17.91,23.73A1,1,0,0,1,433.75,333.25ZM358.3,290.56,433.47,331,450,309c-1.3-.06-2.92-.18-4.94-.35-13.9-1.17-61.86-34.7-68.75-39.55Z" fill="#000000"/><path d="M434,334.3l23.63,20.46,16-16.37-2.11-7.78s29.12-14.8,37.56-44.68c-8-4.09-12.24.41-21.95,6.14s-30.9,16.46-43.35,15.12A109.38,109.38,0,0,1,434,334.3Z" style="fill:#fece2f;"/><path d="M457.6,355.76a1,1,0,0,1-.66-.24l-23.63-20.47a1,1,0,0,1-.22-1.24A108.56,108.56,0,0,0,442.81,307a1,1,0,0,1,1.09-.78c10.83,1.18,29.79-7.34,42.73-15,1.63-1,3.07-1.86,4.46-2.74,6.79-4.27,11.28-7.09,18.45-3.43a1,1,0,0,1,.51,1.16c-7.72,27.32-32.77,42.36-37.35,44.92l1.9,7a1,1,0,0,1-.25,1l-16,16.37A1,1,0,0,1,457.6,355.76Zm-22.38-21.7,22.32,19.33,15-15.29-2-7.22a1,1,0,0,1,.51-1.16c.29-.14,28.31-14.7,36.82-43.26-5.72-2.6-9.36-.31-15.74,3.7-1.34.85-2.85,1.8-4.5,2.77-2.87,1.7-28.08,16.27-43.07,15.33A113.09,113.09,0,0,1,435.22,334.06Z" fill="#000000"/><path d="M318.57,428.62S320.41,494,328.34,506s5.15,5.45,5.15,5.45l-32.15.87-12.76-75.08Z" fill="#000000"/><path d="M333.79,514.22c-.41,0-1-.37-2.09-1.77l-30.33.82h0a1,1,0,0,1-1-.83l-12.77-75.08a1,1,0,0,1,.71-1.13l30-8.57a1,1,0,0,1,.87.15,1,1,0,0,1,.41.78c0,.65,1.92,65.27,9.6,76.81,1.62,2.44,2.73,4,3.49,5l.8,0h0a1,1,0,0,1,.92.61c.5,1.17.95,2.47,0,3A1.26,1.26,0,0,1,333.79,514.22Zm.41-2h0Zm-44.49-74.33,12.47,73.34,28.05-.76c-.74-1-1.64-2.34-2.73-4-7.46-11.22-9.58-67.08-9.89-76.58Z" fill="#000000"/><path d="M299.8,513.69l-2.19,30.65,23.17,2.26,5-6.39s30.84,15.11,60.36,3.27c-1.58-8.66-7.83-9.13-18.45-13.06S332.38,513,329,504.14A131.74,131.74,0,0,1,299.8,513.69Z" style="fill:#fece2f;"/><path d="M361.77,549a93.23,93.23,0,0,1-35.65-7.52l-4.56,5.77a1,1,0,0,1-.88.37l-23.16-2.26a1,1,0,0,1-.91-1.06l2.2-30.66a1,1,0,0,1,.82-.91,132,132,0,0,0,29-9.46,1,1,0,0,1,.8,0,1,1,0,0,1,.56.57c3.11,8.23,26.78,21.5,38.12,25.69,1.77.66,3.39,1.21,5,1.74,7.65,2.59,12.71,4.3,14.12,12.08a1,1,0,0,1-.61,1.11A66.47,66.47,0,0,1,361.77,549Zm-35.95-9.76a1,1,0,0,1,.44.11c.3.14,30.25,14.5,58.77,3.53-1.39-5.93-5.47-7.31-12.63-9.74-1.51-.51-3.22-1.09-5-1.75-9.78-3.62-34-16.49-38.85-25.89a135.4,135.4,0,0,1-27.78,9l-2.07,28.92,21.65,2.11,4.71-6A1,1,0,0,1,325.82,539.21Z" fill="#000000"/><path d="M99,130.52a2.64,2.64,0,0,1,3.93-1c19,13.84,46.82,40.31,97.14,48.57,56.35,9.24,117.56-16.74,117.56-16.74l9.49,17.18s-101.66,53.57-164.49,39.1S56.84,172,56.84,172C79,152.1,89.44,150,99,130.52Z" style="fill:#fff;"/><path d="M159.2,197.65s-8.68-17.87-10.47-24.26,6.13-3.83,13,4.34,19.4,16.85,24.25,18.13-4.85-14,3.06-12.51,16.34,6.89,23.49,6.38,4.6-4.08,17.88-4.34,27.32-3.32,34.72-8.93C252.9,178,186,193.31,126.87,146.65c-.87-.8-1.7-1.56-2.5-2.27a2.64,2.64,0,0,0-4.11,3.15l19.79,36.59Z" style="fill:#fece2f;"/><path d="M186.18,221.11a106.86,106.86,0,0,1-23.8-2.47c-62.3-14.35-105.7-45.51-106.13-45.82a1,1,0,0,1-.41-.76,1,1,0,0,1,.33-.8c7.27-6.52,13.19-11.07,18.41-15.08,10.35-8,17.18-13.21,23.5-26.1a3.65,3.65,0,0,1,5.42-1.34c2.69,2,5.57,4.19,8.62,6.54,19,14.69,45.11,34.8,88.1,41.85,55.41,9.08,116.39-16.41,117-16.67a1,1,0,0,1,1.27.44L328,178.07a1,1,0,0,1-.41,1.37C326.67,179.92,247.69,221.11,186.18,221.11ZM58.44,171.91c6.88,4.74,47.76,31.74,104.39,44.78,58.61,13.49,152.66-33.32,162.9-38.55l-8.56-15.5c-7.57,3.05-64.85,25.06-117.28,16.46-43.48-7.13-69.78-27.42-89-42.24-3-2.34-5.91-4.56-8.58-6.5a1.63,1.63,0,0,0-2.44.6h0c-6.53,13.31-13.51,18.68-24.09,26.8C70.83,161.58,65.23,165.88,58.44,171.91ZM99,130.52h0Z" fill="#000000"/><path d="M192.39,243.22,96.61,321.4s-79-110.55-77.5-182.83a2.72,2.72,0,0,1,.34-1.25,48.61,48.61,0,0,1,21-20.51c4.23-2.07,14-7.37,21.77-4.48a2.46,2.46,0,0,1,1.19,1c3,4.45,5.87,9,8.11,12.62.06.1.12.21.19.31,1.48-3.9,3.24-7.18,4.11-9.65A2.63,2.63,0,0,1,79.12,115c24.18,7.67,45.13,23,60.81,67.37C167.38,198.6,192.39,243.22,192.39,243.22Z" style="fill:#fff;"/><path d="M96.61,322.4h-.13a1,1,0,0,1-.68-.41C95,320.87,16.61,210.33,18.11,138.55a3.78,3.78,0,0,1,.47-1.71A49.87,49.87,0,0,1,40,115.91l.84-.41c4.55-2.26,14-7,21.72-4.11a3.51,3.51,0,0,1,1.67,1.35c2.38,3.52,4.93,7.47,7.28,11.27.55-1.34,1.12-2.58,1.64-3.73.7-1.55,1.31-2.88,1.72-4A3.61,3.61,0,0,1,79.42,114c20.78,6.59,44.31,19.78,61.33,67.65C168,198,193,242.29,193.27,242.73A1,1,0,0,1,193,244L97.25,322.17A1,1,0,0,1,96.61,322.4ZM57.28,112.49c-5.86,0-12.13,3.12-15.52,4.8l-.85.42a47.9,47.9,0,0,0-20.59,20.1,1.78,1.78,0,0,0-.21.78c-1.42,67.76,69.33,170.8,76.7,181.35l94.29-77c-3.37-5.83-26.68-45-51.68-59.79a1,1,0,0,1-.44-.53c-16.73-47.31-39.8-60.29-60.16-66.75a1.64,1.64,0,0,0-2,1c-.43,1.23-1.06,2.6-1.78,4.19s-1.58,3.49-2.34,5.47a1,1,0,0,1-.85.64,1,1,0,0,1-.94-.48l-.15-.24c-2.59-4.24-5.46-8.71-8.12-12.64a1.62,1.62,0,0,0-.71-.6A13.25,13.25,0,0,0,57.28,112.49Z" fill="#000000"/><path d="M95.94,317.25s29.43,44.2,86.4,9.21,80.71-61.7,89.26-57.09S352,326.46,390,334.75c7.66-8.68,33.93-38.11,33.93-38.11s-103.77-66.4-127.55-83.76C253.77,181.78,133.92,264.76,95.94,317.25Z" style="fill:#fece2f;"/><path d="M146.34,339.58s103.82-3.26,116.16,8.71,33.79,138.4,33.79,138.4L350.85,469S327.62,310.31,317.2,291.34C299.92,259.89,199.65,260.39,151,262.75c-11.1,9.58-23.2,21.4-23.2,21.4Z" style="fill:#fece2f;"/><path d="M268.22,206.84c-31.4,8.81-46.34,16.6-88.21,43.53C165.2,260,137.76,274,137.76,274S208.86,208.75,268.22,206.84Z" style="fill:#fff;"/><polygon points="70.64 101.72 75.05 116.65 92.47 122.59 80.79 104.21 70.64 101.72" style="fill:#fff;"/><path d="M92.47,123.59a1.13,1.13,0,0,1-.32,0L74.72,117.6a1,1,0,0,1-.63-.66L69.68,102a1,1,0,0,1,1.2-1.25L81,103.24a1,1,0,0,1,.6.43l11.68,18.38a1,1,0,0,1,0,1.16A1,1,0,0,1,92.47,123.59Zm-16.61-7.72,14.24,4.86-9.94-15.65-8.07-2Z" fill="#000000"/><path d="M144.44,343.48a57.77,57.77,0,0,1-25.78-6,65,65,0,0,1-23.55-19.66,1,1,0,0,1,0-1.14c15.06-20.82,42.54-46.1,73.5-67.62,34.15-23.74,66.67-39,91.56-42.92,15.61-2.48,28-.47,36.79,6,23.49,17.13,126.46,83.06,127.5,83.72a1,1,0,0,1,.45.71,1,1,0,0,1-.24.8c-.26.29-26.36,29.53-33.93,38.11a1,1,0,0,1-1,.31c-18.76-4.09-51.86-23-69.93-34a1,1,0,0,1-.34-1.37,1,1,0,0,1,1.38-.34c17.77,10.75,50.17,29.3,68.74,33.59,7.24-8.2,28.42-31.93,32.77-36.8C411.72,290,318.1,230,295.8,213.69c-8.35-6.09-20.22-8-35.29-5.59-24.61,3.9-56.83,19-90.73,42.59-30.51,21.2-57.58,46-72.61,66.56a65.08,65.08,0,0,0,22.45,18.46c19.74,9.72,41.56,7.39,64.85-6.91,28.22-17.34,51.21-36,68-49.59,18.51-15,28.71-23.29,33.6-20.65a1,1,0,0,1,.4,1.35,1,1,0,0,1-1.35.41c-3.72-2-15.93,7.9-31.39,20.44-16.83,13.65-39.87,32.33-68.21,49.74C169.83,340.13,156,343.48,144.44,343.48Z" fill="#000000"/><path d="M296.29,487.69a1,1,0,0,1-1-.8c-.25-1.23-24.9-123-32.39-138.1-4-8-6.42-8.5-29-5.77-14.82,1.79-34.16.42-52.87-.91-12.82-.91-24.93-1.77-34.65-1.53h0a1,1,0,0,1,0-2c9.83-.24,22,.62,34.84,1.54,18.61,1.32,37.86,2.68,52.49.92,22.5-2.72,26.45-2.47,31.08,6.87,7.3,14.74,29.68,124.45,32.33,137.49l52.69-17.11c-1.84-12.46-23.59-158.58-33.42-176.47-5.66-10.3-21.77-17.92-47.9-22.67a1,1,0,0,1-.81-1.16,1,1,0,0,1,1.17-.81c26.74,4.86,43.33,12.83,49.29,23.68,10.39,18.91,32.82,171.49,33.77,178a1,1,0,0,1-.68,1.09L296.6,487.65A1.1,1.1,0,0,1,296.29,487.69Z" fill="#000000"/><path d="M136.48,275.27a40.26,40.26,0,0,0,7.66,25.21c8.93,12.51,39.44,27.57,67.4,9.38C207,319.56,184,341.14,184,341.14s-41.62-7.66-59.24-53.62A153.67,153.67,0,0,1,136.48,275.27Z" fill="#000000"/><path d="M254.82,289c-4.41,10.91-5.95,25.94,1.91,22.15,4.65-2.24,6.64-4,10.09-4.22,6.25-.31-3,12.24,2.68,9.58,14-6.51,14.55-12.38,18.38-18.77s9.7,4.34,2.05,14.56-.08,13.88-2.75,16.72c-5.74,6.13-12.45,21.26-12.45,21.26l-41-21.39C214.63,306.37,221.37,293.84,254.82,289Z" fill="#000000"/><path d="M162.14,242.69a1,1,0,0,1-.95-.67c-.13-.37-13.22-37.38-39.77-53.09a1,1,0,0,1-.37-.37c-12.16-22-24.19-41.67-48.35-60.34A3.62,3.62,0,0,1,71.52,124l7.76-19.79a1,1,0,0,1,1.87.74l-7.77,19.78a1.65,1.65,0,0,0,.54,1.9c24.38,18.83,36.52,38.64,48.75,60.71,27,16.16,40.28,53.64,40.41,54a1,1,0,0,1-.61,1.28A1.26,1.26,0,0,1,162.14,242.69Z" fill="#000000"/><path d="M229.93,338.07c-20.46,2.87-78.84,4.84-96.47-44s-62.38-42.71-80-59c0,0-31.1,57.88,27.11,96.69S229.93,338.07,229.93,338.07Z" style="fill:#fece2f;"/><path d="M157.93,327.1c49.53-10.47,85.53-38.56,108.76-57.45-17.62,20.68-9.57,24.89-18.76,29.49s-15.2,12.51-17.49,19.78,25.91,18.71,21.32,22.15c-11.49,1.92-30.86,5.83-41.49,4.41C187.29,342.41,166.35,333.22,157.93,327.1Z" fill="#000000"/><path d="M218.93,343.05A132.33,132.33,0,0,1,182.14,338c-24.85-7.39-42-22.44-49.62-43.53-11.66-32.27-35.72-40.33-55.06-46.81-10-3.37-18.72-6.27-24.68-11.78-5.26-4.85-7.91-10.26-7.86-16.06.08-10.38,8.7-18.21,9.06-18.54a1,1,0,0,1,1.34,1.49c-.09.08-8.34,7.59-8.4,17.08,0,5.21,2.39,10.11,7.21,14.56,5.65,5.22,14.14,8.06,24,11.35,19.75,6.62,44.33,14.85,56.31,48,17,47.06,77.2,49.45,99,46.4a108.76,108.76,0,0,0,26.42-7.41,1,1,0,0,1,.78,1.84,110.94,110.94,0,0,1-26.92,7.55A108.79,108.79,0,0,1,218.93,343.05Z" fill="#000000"/><path d="M133,320.72s6.79,10.57,15.79,15.8,5.3,7.56-1.77,5.83-15.29-7.5-20.54-16S128.65,315.4,133,320.72Z" style="fill:#fff;"/><path d="M165,343.14c-2.15-1.16-7.17,1.37-3.15,4.59s7.52,3.6,12.19,4,4.57-2.23,1.74-3.46S167.7,344.58,165,343.14Z" style="fill:#fff;"/><path d="M20.09,137.91S-4.07,164.78,2,230.88s146.45,21.36,146.45,21.36L140.35,236s-72.21,14.24-85.43-7.12,23-39.92,31.1-66.37C47.21,145.12,43.64,101.46,20.09,137.91Z" style="fill:#fff;"/><path d="M14.79,145.63A21.55,21.55,0,0,1,26,135.16c8.43-3.57,13.14,5.82,2.56,18.39-8.17,9.7-14.91,4.78-17.46,12.44s-3.32,17.87,4.59,11.74,4.09-2.81,8.43-5.87,13-1.79-4.34,16.34c-23.86,24.91-12.51,41.11-8.68,33.7s15.32-14.55,10.72-5.36-10.72,32.94-.51,41.87C6.27,252.29,1.61,238.23.9,216.8.14,193.56,7.38,161.46,14.79,145.63Z" style="fill:#fece2f;"/><path d="M61.66,268.12c-17.24,0-33.49-2.65-44.9-10.21C7.4,251.71,2.11,242.65,1,231-5,165.2,17.19,138.53,18.14,137.42a1,1,0,0,1,1.52,1.31C19.43,139-3,166,3,230.79c1,11,6,19.6,14.83,25.45,34.66,23,118.52-1.37,129.2-4.61l-7.26-14.52c-7.9,1.64-68.2,13.44-81-7.28-10.79-17.42-.62-38.1,9.45-54.16a1,1,0,1,1,1.69,1.06c-14.49,23.13-17.41,39.19-9.44,52.05,12.7,20.52,79,6.36,79.65,6.21a1,1,0,0,1,1.11.53l8.14,16.27a1,1,0,0,1,0,.84,1,1,0,0,1-.61.56C146.11,254,101.31,268.12,61.66,268.12Z" fill="#000000"/><path d="M138.93,236.13l4.34,17.62,4.79-1.14c4.26-1,11.3.37,14.87,5.73s6.71,13.51,7.73,15.81,3.76,1.56,3.25-1-2.55-13-2.55-13,7.91,13.28,9.45,17.87,5.26,1.38,5.26.36c1.6,4.28,6.29,3.54,6,.48,1.72,1.91,5.55,1.63,2.58-6.51-5.57-15.28-19.1-29.74-26.65-32.88C162.74,237.24,152.6,232.72,138.93,236.13Z" style="fill:#fece2f;"/><path d="M189.72,282.35a4.66,4.66,0,0,1-3.76-2.07,4.58,4.58,0,0,1-2.16,1.09c-.83.13-2.89.1-3.94-3.05-.88-2.63-4-8.32-6.38-12.53.56,2.85,1.17,5.93,1.41,7.17a2.77,2.77,0,0,1-1.69,3.45,2.88,2.88,0,0,1-3.46-1.86l-.72-1.69c-1.4-3.36-4-9.61-6.92-14-3.41-5.13-10.13-6.2-13.81-5.32l-4.78,1.14a1,1,0,0,1-1.21-.73L138,236.37a1,1,0,0,1,.73-1.21c13.58-3.39,23.78.88,29.25,3.17l.48.2c8.35,3.47,21.76,18.52,27.21,33.46,2.06,5.63,1,7.72-.27,8.48a2.83,2.83,0,0,1-2.57.07,3.21,3.21,0,0,1-2.24,1.72A3.77,3.77,0,0,1,189.72,282.35Zm-3.65-5a1,1,0,0,1,.94.65c.71,1.9,2.09,2.53,3.1,2.3a1.2,1.2,0,0,0,1-1.39,1,1,0,0,1,1.74-.75c.51.57,1.18.76,1.48.58.46-.28.94-1.91-.58-6.08-5.62-15.42-19.21-29.43-26.1-32.3l-.48-.2c-5.13-2.14-14.56-6.09-27-3.3L144,252.55l3.82-.92c4.95-1.17,12.22.58,15.94,6.16,3,4.51,5.67,10.88,7.1,14.29.29.7.53,1.27.7,1.66.29.66.74.85,1,.77s.46-.56.34-1.16c-.51-2.55-2.55-13-2.55-13a1,1,0,0,1,1.84-.7c.32.55,8,13.42,9.53,18.07.27.78.74,1.71,1.51,1.72h0a2.51,2.51,0,0,0,1.81-1.14,1,1,0,0,1,.82-.89Zm-1,1Zm0-.12Z" fill="#000000"/><path d="M323,310.63s-1.53,38.29-8.43,55.91,6.13,14.94,10.34,8,0,41-4.21,53.24,5.75,10.34,11.87-9.19,6.51-26.43,6.51-26.43Z" fill="#000000"/><path d="M371.21,327.68s-14.9-11.82-21-23.56-6.89,3.83-12.51-.51-14.3-12.51-19.4-24.51-13.79-11-15.58-9.2-9.45-16.08-20.17-11.74S267,268.63,267,268.63s24.76,3.57,31.91,7.91,14.81,4.85,18.64,15.83,2.55,7.66,2.55,7.66S354.62,324.61,371.21,327.68Z" fill="#000000"/><path d="M52.45,83.72s6.08,6.46,15.21,5.75a0,0,0,0,1,0,0l1,7s0,0,0,0C67.16,96,57.38,92.7,52.45,83.72Z" fill="#000000"/><path d="M68.71,97.49a1.35,1.35,0,0,1-.28,0c-1.94-.6-11.79-4-16.86-13.25A1,1,0,0,1,53.18,83c0,.06,5.87,6.11,14.4,5.44a1.09,1.09,0,0,1,1.11.91l1,7a1,1,0,0,1-.34.91A1,1,0,0,1,68.71,97.49Zm-11.6-9.22A30.87,30.87,0,0,0,67.49,95l-.66-4.47A19.76,19.76,0,0,1,57.11,88.27Z" fill="#000000"/><path d="M54.49,49a1,1,0,0,1-1-.93A1,1,0,0,1,54.42,47s5.08-.39,7.36-2.21a1,1,0,0,1,1.41.15A1,1,0,0,1,63,46.33C60.27,48.54,54.79,49,54.56,49Z" fill="#000000"/><path d="M68.6,73c-.91,0-1.49,0-1.57-.06a1,1,0,0,1,.2-2c.08,0,8.15.77,13-4.17a1,1,0,1,1,1.43,1.39C77.46,72.48,71.43,73,68.6,73Z" fill="#000000"/><path d="M70.19,43.1a1,1,0,0,1-1-.93,1,1,0,0,1,.92-1.07c1.29-.09,5-.63,6.73-2a1,1,0,0,1,1.25,1.56c-2.57,2.05-7.62,2.43-7.84,2.45Z" fill="#000000"/><path d="M72.71,62.46a1,1,0,0,1-.31-2,3.77,3.77,0,0,0,2-1.3s0-.1-.09-.28l-.06-.1C73.47,57.35,68,48.06,67.93,48a1,1,0,1,1,1.72-1c.23.38,5.46,9.24,6.34,10.9a2.19,2.19,0,0,1,.3,2c-.54,1.6-2.82,2.42-3.27,2.56A.84.84,0,0,1,72.71,62.46Z" fill="#000000"/><path d="M94.35,240.29s-17.11,2-25.28-12.51c-2.72-4.85-11.9-8-3.83-18.64,4.09-5.36,6.39-6.9,5.37-10.73-2-7.43-1.37-8.55,6.38-12.25,16.59-7.92-1-28.09-8.17-12-3.88,8.72-16.34,29.62-13.28,45.19C58.41,233.91,72.39,241.56,94.35,240.29Z" fill="#000000"/><polygon points="36.24 107.08 32.41 120.61 54.62 139.25 62.79 112.25 36.24 107.08" style="fill:#fff;"/><path d="M54.62,140.25A1,1,0,0,1,54,140L31.76,121.38a1,1,0,0,1-.32-1l3.83-13.53a1,1,0,0,1,1.16-.71L63,111.27a1,1,0,0,1,.67.46,1,1,0,0,1,.1.81l-8.17,27a1,1,0,0,1-.68.67A.9.9,0,0,1,54.62,140.25Zm-21.08-20L54.1,137.51,61.51,113,37,108.24Z" fill="#000000"/><path d="M295,211.69s8.43,6.89,12.51,23.49,16.09,28.09,16.34,17.11,7.66-11.75,17.11,3.57,24.35,9.52,32,14.37,28.6,13,28.6,13Z" fill="#000000"/><polygon points="147.97 489.99 223.8 541.31 248.31 535.82 151.54 489.48 147.97 489.99" fill="#000000"/><polygon points="146.15 489.86 211.54 542.58 193.16 544.75 143.09 489.86 146.15 489.86" fill="#000000"/><path d="M35,62.45a1,1,0,0,1-.78-.38,1.94,1.94,0,0,0-2.82-.24,1,1,0,0,1-1.22-1.59,3.92,3.92,0,0,1,5.61.59A1,1,0,0,1,35,62.45Z" fill="#000000"/><path d="M448.39,308.56a16.87,16.87,0,0,1-4-.41,1,1,0,0,1-.38-1.75,27.66,27.66,0,0,0,4.32-4.62,77.25,77.25,0,0,1,6.21-6.95,7.44,7.44,0,0,1,7.58-2A5.48,5.48,0,0,1,466,297c.22,1.37,0,4.09-3.78,6.9A23.06,23.06,0,0,1,448.39,308.56Zm-3.73-1.38h0Zm2.27-.69A21.19,21.19,0,0,0,461,302.3c2.19-1.62,3.25-3.38,3-5a3.49,3.49,0,0,0-2.48-2.62,5.49,5.49,0,0,0-5.56,1.55,73.23,73.23,0,0,0-6.06,6.78A41.48,41.48,0,0,1,446.93,306.49Z" fill="#000000"/><path d="M444.37,307a1,1,0,0,1-.82-.42c-.28-.4-1.61-2.82-.2-11.7.63-3.91,2.57-5.09,3.68-5.45a5.21,5.21,0,0,1,5.22,1.55,6,6,0,0,1,1.57,6.12c-1.88,5.74-8.68,9.61-9,9.77A1.12,1.12,0,0,1,444.37,307Zm4-15.77a2.26,2.26,0,0,0-.69.1c-1.15.38-2,1.75-2.31,3.86-.83,5.23-.65,8-.41,9.27,1.89-1.26,5.77-4.23,7-8a4,4,0,0,0-1.09-4.09A3.67,3.67,0,0,0,448.33,291.21Z" fill="#000000"/><path d="M347.59,518.59a14.8,14.8,0,0,1-4.89-.94c-11.34-4-14.38-11.72-14.5-12a1,1,0,0,1,1.24-1.31,40.08,40.08,0,0,0,7.09,1.4c2.65.37,6,.84,10.35,1.85,3.32.77,5.7,2.71,6.35,5.17a4.34,4.34,0,0,1-1.23,4.4A6.33,6.33,0,0,1,347.59,518.59Zm-16.44-11.75c1.6,2.39,5.19,6.44,12.21,8.92,3.24,1.15,6,1.11,7.29-.11a2.32,2.32,0,0,0,.65-2.41c-.36-1.35-1.82-3-4.87-3.74-4.31-1-7.43-1.43-10.18-1.82C334.36,507.42,332.73,507.19,331.15,506.84Z" fill="#000000"/><path d="M341.81,508.34c-6.11,0-13.05-2.82-13.38-3a1,1,0,0,1,.33-1.92c.06,0,3.49-.26,11.53-4.56,3.93-2.1,6.18-1.1,7.17-.31a5.09,5.09,0,0,1,1.5,5.35,5.73,5.73,0,0,1-4.75,4.23A15.77,15.77,0,0,1,341.81,508.34Zm-9.47-3.71c3.08,1,7.85,2.12,11.57,1.56a3.68,3.68,0,0,0,3.11-2.77,3.15,3.15,0,0,0-.8-3.26c-1.06-.84-2.82-.65-5,.5A57.15,57.15,0,0,1,332.34,504.63Z" fill="#000000"/><path d="M236.82,341.65s16.47-2.68,29.11-10.34,18.38,1.53,14.17,7.66-12.26,29.87-4.22,25.27,13.41,1.92,10.34,13-3.83,32.17.39,30.63,3.44,41,3.44,41-20.45-89-25.08-99.57C257.69,332.65,236.82,341.65,236.82,341.65Z" fill="#000000"/><path d="M289.25,342a184.71,184.71,0,0,0,10.86-19.92c3.25-7,6-3.52,5.73,1.16-.62,10.37-8.48,24.8-9.37,26.48C293.36,355.56,285.36,351.18,289.25,342Z" fill="#000000"/><path d="M473.47,299.33s3.45,7.09-3.83,11.11-21.26,7.09-27.57,5.17" style="fill:#fece2f;"/><path d="M447,317.2a18.38,18.38,0,0,1-5.17-.63,1,1,0,0,1,.58-1.92c6.12,1.86,19.85-1.24,26.8-5.08a7.34,7.34,0,0,0,3.41-9.8,1,1,0,1,1,1.8-.87c0,.08,3.77,8-4.25,12.42A55.46,55.46,0,0,1,447,317.2Z" fill="#000000"/><path d="M321.27,508.24A35.1,35.1,0,0,0,340,524.9c6.13,2.68,10.73-2.1,10.73-2.1" style="fill:#fece2f;"/><path d="M343.77,526.71a10.28,10.28,0,0,1-4.14-.89,35.83,35.83,0,0,1-19.28-17.17,1,1,0,0,1,1.83-.81A34.48,34.48,0,0,0,340.39,524c5.43,2.37,9.48-1.69,9.65-1.87a1,1,0,0,1,1.44,1.39A11.73,11.73,0,0,1,343.77,526.71Z" fill="#000000"/><polygon points="298.48 536.01 325.86 539.46 320.78 546.6 297.61 544.34 298.48 536.01" fill="#000000"/><polygon points="451.95 350.05 470.86 329.94 473.64 338.26 458.17 355.65 451.95 350.05" fill="#000000"/><path d="M186.46,280a1,1,0,0,1-1-.84,63.43,63.43,0,0,0-5.45-16,1,1,0,0,1,.42-1.34,1,1,0,0,1,1.35.42,63.94,63.94,0,0,1,5.65,16.58,1,1,0,0,1-.82,1.15Z" fill="#000000"/><path d="M118.86,392s40.09.76,74.3-12.77c34.72-13.73,62.55-12.77,41.62-4.6S162.78,398.07,118.86,392Z" fill="#000000"/><path d="M21.33,259.44s8.93,15,37.28,15.57c36.76.77,47-8.43,65.1,0-6.64-7.4-13.27-13.53-13.27-13.53S42.52,274.24,21.33,259.44Z" fill="#000000"/><path d="M167.63,316.12s22.47,7.66,39.32-9.2a80.53,80.53,0,0,0,22.72-41.87c1.79-8.17,7.4-15.57,7.15-.51s4.34,21.19,11,10,7.4-15.32,8.17-18.64,7.15,0,4.34,10.72-23,38.3-39.07,46.47S192.14,327.86,167.63,316.12Z" fill="#000000"/><path d="M278.76,271.18s-15.9-3.57-27,25c0-6.64,7.65-23.3,17.61-29.23A16.13,16.13,0,0,1,278.76,271.18Z" fill="#000000"/><path d="M39.46,360.26a1,1,0,0,1-.89-.52C22.18,329,49.64,271.88,50.81,269.47a1,1,0,1,1,1.8.87c-.28.58-28.18,58.62-12.27,88.45a1,1,0,0,1-.41,1.36A1,1,0,0,1,39.46,360.26Z" fill="#000000"/><path d="M85.92,387.33a1,1,0,0,1-.41-.09C53.8,372.64,73.69,319,89.67,275.87l2-5.29a1,1,0,0,1,1.29-.59,1,1,0,0,1,.59,1.28l-2,5.3c-15.69,42.34-35.22,95-5.2,108.85a1,1,0,0,1-.42,1.91Z" fill="#000000"/><path d="M120.9,393.2a1,1,0,0,1-.41-.09c-27.81-12.8-10.82-57.21,4.18-96.4,1.85-4.83,3.6-9.4,5.25-13.88a1,1,0,0,1,1.88.7c-1.66,4.48-3.41,9.06-5.26,13.9-14.68,38.36-31.33,81.84-5.22,93.86a1,1,0,0,1,.49,1.33A1,1,0,0,1,120.9,393.2Z" fill="#000000"/><path d="M159.46,391.93a.9.9,0,0,1-.42-.1c-18.76-8.63-6.19-42.63,3-67.46l.78-2.09a1,1,0,1,1,1.87.69l-.77,2.09c-8.91,24.1-21.11,57.1-4,65a1,1,0,0,1,.49,1.32A1,1,0,0,1,159.46,391.93Z" fill="#000000"/><path d="M202.31,381.71a1.06,1.06,0,0,1-.42-.09c-11.7-5.38-4.59-24.57,1.13-40l.69-1.86a1,1,0,0,1,1.87.69l-.69,1.87c-5.42,14.64-12.18,32.86-2.16,37.47a1,1,0,0,1,.49,1.33A1,1,0,0,1,202.31,381.71Z" fill="#000000"/><path d="M153.71,392.05a1,1,0,0,1-.24,0c-55.32-13.73-86.11-47.67-102.19-73.73-17.43-28.23-21.83-53.59-21.87-53.84a1,1,0,1,1,2-.33c0,.25,4.4,25.28,21.64,53.18C68.91,343,99.32,376.52,154,390.08a1,1,0,0,1-.24,2Z" fill="#000000"/><path d="M203.25,378.36c-19,0-36.59-3.44-52.48-10.29-18.35-7.91-34.5-20.36-48-37a166.8,166.8,0,0,1-30.46-59.67,1,1,0,0,1,2-.46,164.57,164.57,0,0,0,30.1,58.92c20.89,25.72,59.48,54.31,124.65,44.49a1,1,0,1,1,.3,2A174.8,174.8,0,0,1,203.25,378.36Z" fill="#000000"/><path d="M372.9,171.73a3.12,3.12,0,0,1-1.49-.07c1-1.1,1.87-2.19,2.67-3.12,2.49-2.88,3.26-6.13,0-7.28-2.17-.77-4,1.15-7.33,4.63-1.31,1.37-4.4,1.38-6.89,1.13C352.17,163.37,344,159,344,159a54.63,54.63,0,0,0,5.55-2.48c5.27-2.83,8.11-11.75,1-9.26s-10.95,4-18.38,7.15c-6.82,2.91-11.78,6.13-19.37,9L318.2,183s1.82-.77,4-1.63c6.67-2.61,20.94,3.87,37.15,5.94,8.9,1.13,15.07-3.06,18.13-8.43S377.12,170.33,372.9,171.73Z" style="fill:#fece2f;"/><path d="M362.17,188.49a22.62,22.62,0,0,1-2.93-.19,159.66,159.66,0,0,1-18.48-3.81c-7.78-1.94-14.5-3.62-18.17-2.19-2.19.86-4,1.62-4,1.62a1,1,0,0,1-.82,0,1,1,0,0,1-.53-.64l-5.4-19.63a1,1,0,0,1,.61-1.2,110.59,110.59,0,0,0,11.24-5.12c2.54-1.28,5.17-2.61,8.1-3.86,7.44-3.17,11.06-4.58,18.44-7.17,3.75-1.32,5,.38,5.31,1.16,1.2,2.74-1.62,7.84-5.5,9.92-1.23.66-2.58,1.27-3.66,1.73,2.83,1.5,8.42,4.41,13.76,6.95,3,.29,5.1,0,5.88-.84,3.49-3.66,5.6-5.87,8.39-4.88a3.87,3.87,0,0,1,2.71,2.67c.46,1.73-.37,4-2.28,6.2l-1,1.13-.15.18a5.06,5.06,0,0,1,4.92,1.57c1.46,1.78,1.36,4.44-.28,7.31A18.09,18.09,0,0,1,362.17,188.49Zm-36.09-8.73c4,0,9.13,1.28,15.17,2.79a155.75,155.75,0,0,0,18.25,3.77c10.59,1.35,15.51-5.1,17.13-7.93,1.2-2.11,1.38-3.95.48-5s-2.27-1.2-3.89-.66h0a3.91,3.91,0,0,1-2,0,1,1,0,0,1-.54-1.65c.6-.67,1.16-1.33,1.68-2,.34-.41.66-.8,1-1.16,1.42-1.64,2.14-3.32,1.86-4.38a2,2,0,0,0-1.44-1.3c-1.52-.54-3,1-6.28,4.38-1.28,1.35-3.88,1.83-7.71,1.43a.9.9,0,0,1-.32-.09c-7.63-3.62-15.81-8-15.9-8.08a1,1,0,0,1,.13-1.82,53.48,53.48,0,0,0,5.43-2.42c3.21-1.72,5.25-5.9,4.61-7.35-.37-.84-2.09-.34-2.82-.08-7.32,2.57-10.92,4-18.32,7.12-2.87,1.23-5.47,2.54-8,3.81-3.23,1.62-6.55,3.3-10.58,4.87l4.86,17.67c.74-.3,1.81-.74,3-1.2A11.47,11.47,0,0,1,326.08,179.76Zm46.82-8h0Z" fill="#000000"/><path d="M337.29,170.24H337a1,1,0,0,1-1-1,1,1,0,0,1,1-1h.1c1.1,0,3.79-.09,5.31-2,1.23-1.51,1.47-3.89.71-7.08a1,1,0,1,1,1.94-.46c.92,3.82.55,6.78-1.1,8.8C342,169.92,338.83,170.24,337.29,170.24Z" fill="#000000"/><path d="M357.74,178a1,1,0,0,1-1-.93l-.63-8.17a1,1,0,0,1,.92-1.07,1,1,0,0,1,1.07.92l.64,8.17a1,1,0,0,1-.92,1.07Z" fill="#000000"/><path d="M365.3,174.44a30.85,30.85,0,0,1-7.87-1.57,1,1,0,1,1,.63-1.9c1.63.54,6.3,1.85,8.26,1.38a31.58,31.58,0,0,0,4.8-1.6,1,1,0,0,1,.82,1.83,34.5,34.5,0,0,1-5.16,1.72A6.71,6.71,0,0,1,365.3,174.44Z" fill="#000000"/><path d="M364.31,179.17a25.72,25.72,0,0,1-6.69-1.34,1,1,0,0,1-.64-1.26,1,1,0,0,1,1.27-.64c1.89.63,5.44,1.51,6.87,1.16a24.48,24.48,0,0,0,4-1.34,1,1,0,0,1,1.32.51,1,1,0,0,1-.5,1.32,27.44,27.44,0,0,1-4.37,1.46A5.6,5.6,0,0,1,364.31,179.17Z" fill="#000000"/></g></g></g></svg>