<?xml version="1.0" encoding="utf-8"?>
<svg xmlns="http://www.w3.org/2000/svg" xmlns:xlink="http://www.w3.org/1999/xlink" style="margin: auto; background: none; display: block; shape-rendering: auto;" width="70px" height="70px" viewBox="0 0 100 100" preserveAspectRatio="xMidYMid">
<g transform="rotate(0 50 50)">
  <rect x="45" y="24" rx="5" ry="6" width="10" height="12" fill="#5e6bcb">
    <animate attributeName="opacity" values="1;0" keyTimes="0;1" dur="0.6756756756756757s" begin="-0.6193693693693695s" repeatCount="indefinite"></animate>
  </rect>
</g><g transform="rotate(30 50 50)">
  <rect x="45" y="24" rx="5" ry="6" width="10" height="12" fill="#5e6bcb">
    <animate attributeName="opacity" values="1;0" keyTimes="0;1" dur="0.6756756756756757s" begin="-0.5630630630630631s" repeatCount="indefinite"></animate>
  </rect>
</g><g transform="rotate(60 50 50)">
  <rect x="45" y="24" rx="5" ry="6" width="10" height="12" fill="#5e6bcb">
    <animate attributeName="opacity" values="1;0" keyTimes="0;1" dur="0.6756756756756757s" begin="-0.5067567567567568s" repeatCount="indefinite"></animate>
  </rect>
</g><g transform="rotate(90 50 50)">
  <rect x="45" y="24" rx="5" ry="6" width="10" height="12" fill="#5e6bcb">
    <animate attributeName="opacity" values="1;0" keyTimes="0;1" dur="0.6756756756756757s" begin="-0.4504504504504505s" repeatCount="indefinite"></animate>
  </rect>
</g><g transform="rotate(120 50 50)">
  <rect x="45" y="24" rx="5" ry="6" width="10" height="12" fill="#5e6bcb">
    <animate attributeName="opacity" values="1;0" keyTimes="0;1" dur="0.6756756756756757s" begin="-0.39414414414414417s" repeatCount="indefinite"></animate>
  </rect>
</g><g transform="rotate(150 50 50)">
  <rect x="45" y="24" rx="5" ry="6" width="10" height="12" fill="#5e6bcb">
    <animate attributeName="opacity" values="1;0" keyTimes="0;1" dur="0.6756756756756757s" begin="-0.3378378378378379s" repeatCount="indefinite"></animate>
  </rect>
</g><g transform="rotate(180 50 50)">
  <rect x="45" y="24" rx="5" ry="6" width="10" height="12" fill="#5e6bcb">
    <animate attributeName="opacity" values="1;0" keyTimes="0;1" dur="0.6756756756756757s" begin="-0.28153153153153154s" repeatCount="indefinite"></animate>
  </rect>
</g><g transform="rotate(210 50 50)">
  <rect x="45" y="24" rx="5" ry="6" width="10" height="12" fill="#5e6bcb">
    <animate attributeName="opacity" values="1;0" keyTimes="0;1" dur="0.6756756756756757s" begin="-0.22522522522522526s" repeatCount="indefinite"></animate>
  </rect>
</g><g transform="rotate(240 50 50)">
  <rect x="45" y="24" rx="5" ry="6" width="10" height="12" fill="#5e6bcb">
    <animate attributeName="opacity" values="1;0" keyTimes="0;1" dur="0.6756756756756757s" begin="-0.16891891891891894s" repeatCount="indefinite"></animate>
  </rect>
</g><g transform="rotate(270 50 50)">
  <rect x="45" y="24" rx="5" ry="6" width="10" height="12" fill="#5e6bcb">
    <animate attributeName="opacity" values="1;0" keyTimes="0;1" dur="0.6756756756756757s" begin="-0.11261261261261263s" repeatCount="indefinite"></animate>
  </rect>
</g><g transform="rotate(300 50 50)">
  <rect x="45" y="24" rx="5" ry="6" width="10" height="12" fill="#5e6bcb">
    <animate attributeName="opacity" values="1;0" keyTimes="0;1" dur="0.6756756756756757s" begin="-0.056306306306306314s" repeatCount="indefinite"></animate>
  </rect>
</g><g transform="rotate(330 50 50)">
  <rect x="45" y="24" rx="5" ry="6" width="10" height="12" fill="#5e6bcb">
    <animate attributeName="opacity" values="1;0" keyTimes="0;1" dur="0.6756756756756757s" begin="0s" repeatCount="indefinite"></animate>
  </rect>
</g>
<!-- [ldio] generated by https://loading.io/ --></svg>