<svg width="226" height="36" viewBox="0 0 226 36" fill="none" xmlns="http://www.w3.org/2000/svg">
<path d="M12.2785 15.912L8.82253 2.412C7.11853 3.06 5.79853 4.068 4.86253 5.436C3.92653 6.78 3.45853 8.436 3.45853 10.404C3.45853 11.292 3.54253 11.916 3.71053 12.276C3.87853 12.612 3.96253 12.804 3.96253 12.852C2.66653 12.852 1.69453 12.588 1.04653 12.06C0.422531 11.508 0.110531 10.608 0.110531 9.36C0.110531 7.824 0.734531 6.336 1.98253 4.896C3.25453 3.432 4.87453 2.256 6.84253 1.368C8.81053 0.455998 10.7785 -2.14577e-06 12.7465 -2.14577e-06C13.0825 -2.14577e-06 13.5625 0.0239983 14.1865 0.0719991L17.3185 12.96L22.6465 0.179998H25.0225L18.0385 15.912L15.6625 27H9.90253L12.2785 15.912ZM25.7828 27.216C24.6308 27.216 23.6948 26.856 22.9748 26.136C22.2788 25.416 21.9307 24.336 21.9307 22.896C21.9307 22.296 22.0267 21.516 22.2188 20.556L24.6668 9H29.8508L27.2588 21.24C27.1868 21.6 27.1508 21.936 27.1508 22.248C27.1508 23.232 27.5108 23.724 28.2308 23.724C28.9028 23.724 29.4788 23.448 29.9588 22.896C30.4388 22.32 30.8228 21.54 31.1108 20.556L33.5588 9H38.7428L36.1508 21.24C36.0548 21.6 36.0068 21.984 36.0068 22.392C36.0068 22.872 36.1148 23.22 36.3308 23.436C36.5708 23.628 36.9548 23.724 37.4828 23.724C38.1548 23.724 38.7308 23.436 39.2108 22.86C39.7148 22.284 40.1108 21.516 40.3987 20.556H41.9108C41.0228 23.148 39.9188 24.912 38.5988 25.848C37.3028 26.76 35.9948 27.216 34.6748 27.216C33.6428 27.216 32.8148 26.928 32.1908 26.352C31.5908 25.776 31.2308 24.924 31.1108 23.796C30.2948 25.116 29.4308 26.016 28.5188 26.496C27.6308 26.976 26.7188 27.216 25.7828 27.216ZM62.2825 27.216C60.8185 27.216 59.7385 26.832 59.0425 26.064C58.3705 25.272 58.0345 24.3 58.0345 23.148C58.0345 22.644 58.0945 22.08 58.2145 21.456C58.3345 20.808 58.4545 20.184 58.5745 19.584C58.7185 18.984 58.8145 18.6 58.8625 18.432C59.0545 17.592 59.2345 16.764 59.4025 15.948C59.5705 15.132 59.6545 14.472 59.6545 13.968C59.6545 12.744 59.2225 12.132 58.3585 12.132C57.7345 12.132 57.1825 12.444 56.7025 13.068C56.2225 13.668 55.8385 14.46 55.5505 15.444L53.1025 27H47.9185L50.5465 14.58C50.6185 14.292 50.6545 13.992 50.6545 13.68C50.6545 12.624 50.2945 12.096 49.5745 12.096C48.9025 12.096 48.3145 12.408 47.8105 13.032C47.3305 13.632 46.9465 14.436 46.6585 15.444L44.2105 27H39.0265L42.8425 9H48.0265L47.6305 10.872C48.8545 9.504 50.3185 8.82 52.0225 8.82C54.1345 8.82 55.3705 9.852 55.7305 11.916C57.0505 9.876 58.7185 8.856 60.7345 8.856C61.9585 8.856 62.9305 9.192 63.6505 9.864C64.3705 10.536 64.7305 11.556 64.7305 12.924C64.7305 13.62 64.6465 14.4 64.4785 15.264C64.3105 16.104 64.0705 17.136 63.7585 18.36C63.5665 19.104 63.3865 19.836 63.2185 20.556C63.0745 21.252 63.0025 21.804 63.0025 22.212C63.0025 22.692 63.1105 23.064 63.3265 23.328C63.5425 23.592 63.9145 23.724 64.4425 23.724C65.1625 23.724 65.7385 23.472 66.1705 22.968C66.6025 22.44 67.0345 21.636 67.4665 20.556H68.9785C68.0905 23.196 67.0585 24.972 65.8825 25.884C64.7305 26.772 63.5305 27.216 62.2825 27.216ZM89.3528 27.216C87.8888 27.216 86.8088 26.832 86.1128 26.064C85.4408 25.272 85.1048 24.3 85.1048 23.148C85.1048 22.644 85.1648 22.08 85.2848 21.456C85.4048 20.808 85.5248 20.184 85.6448 19.584C85.7888 18.984 85.8848 18.6 85.9328 18.432C86.1248 17.592 86.3048 16.764 86.4728 15.948C86.6408 15.132 86.7248 14.472 86.7248 13.968C86.7248 12.744 86.2928 12.132 85.4288 12.132C84.8048 12.132 84.2528 12.444 83.7728 13.068C83.2928 13.668 82.9088 14.46 82.6208 15.444L80.1728 27H74.9888L77.6168 14.58C77.6888 14.292 77.7248 13.992 77.7248 13.68C77.7248 12.624 77.3648 12.096 76.6448 12.096C75.9728 12.096 75.3848 12.408 74.8808 13.032C74.4008 13.632 74.0168 14.436 73.7288 15.444L71.2808 27H66.0968L69.9128 9H75.0968L74.7008 10.872C75.9248 9.504 77.3888 8.82 79.0928 8.82C81.2048 8.82 82.4408 9.852 82.8008 11.916C84.1208 9.876 85.7888 8.856 87.8048 8.856C89.0288 8.856 90.0008 9.192 90.7208 9.864C91.4408 10.536 91.8008 11.556 91.8008 12.924C91.8008 13.62 91.7168 14.4 91.5488 15.264C91.3808 16.104 91.1408 17.136 90.8288 18.36C90.6368 19.104 90.4568 19.836 90.2888 20.556C90.1448 21.252 90.0728 21.804 90.0728 22.212C90.0728 22.692 90.1808 23.064 90.3968 23.328C90.6128 23.592 90.9848 23.724 91.5128 23.724C92.2328 23.724 92.8088 23.472 93.2408 22.968C93.6728 22.44 94.1048 21.636 94.5368 20.556H96.0488C95.1608 23.196 94.1288 24.972 92.9528 25.884C91.8008 26.772 90.6008 27.216 89.3528 27.216ZM100.151 36C99.0232 36 98.0272 35.628 97.1632 34.884C96.3232 34.164 95.9032 33.24 95.9032 32.112C95.9032 31.056 96.1672 30.192 96.6952 29.52C97.2232 28.848 97.9072 28.32 98.7472 27.936C99.5872 27.552 100.715 27.144 102.131 26.712L102.491 25.128C101.267 26.52 99.8032 27.216 98.0992 27.216C96.9472 27.216 96.0112 26.856 95.2912 26.136C94.5952 25.416 94.2472 24.336 94.2472 22.896C94.2472 22.296 94.3432 21.516 94.5352 20.556L96.9832 9H102.167L99.5752 21.24C99.5032 21.528 99.4672 21.828 99.4672 22.14C99.4672 23.196 99.8272 23.724 100.547 23.724C101.219 23.724 101.795 23.448 102.275 22.896C102.755 22.32 103.139 21.54 103.427 20.556L105.875 9H111.095L106.703 29.88C106.223 32.184 105.371 33.78 104.147 34.668C102.947 35.556 101.615 36 100.151 36ZM99.3232 32.796C99.7552 32.796 100.163 32.568 100.547 32.112C100.931 31.68 101.231 30.972 101.447 29.988L101.879 27.864C100.607 28.296 99.6232 28.8 98.9272 29.376C98.2312 29.952 97.8832 30.696 97.8832 31.608C97.8832 31.896 98.0272 32.16 98.3152 32.4C98.6032 32.664 98.9392 32.796 99.3232 32.796ZM129.662 3.168H129.23C127.094 3.168 125.426 3.708 124.226 4.788C123.05 5.844 122.462 7.728 122.462 10.44C122.462 11.328 122.546 11.952 122.714 12.312C122.882 12.648 122.966 12.84 122.966 12.888C121.67 12.888 120.698 12.624 120.05 12.096C119.426 11.544 119.114 10.644 119.114 9.396C119.114 7.692 119.534 6.144 120.374 4.752C121.214 3.336 122.546 2.196 124.37 1.332C126.218 0.467999 128.558 0.0359995 131.39 0.0359995C132.974 0.0359995 134.678 0.179999 136.502 0.467998C138.038 0.731999 139.406 0.864 140.606 0.864C142.142 0.864 143.534 0.611999 144.782 0.107999C144.734 1.668 144.338 2.82 143.594 3.564C142.85 4.308 141.746 4.68 140.282 4.68C139.514 4.68 138.746 4.62 137.978 4.5C137.21 4.38 136.118 4.176 134.702 3.888L129.734 27H124.55L129.662 3.168ZM139.794 27.216C138.642 27.216 137.706 26.856 136.986 26.136C136.29 25.416 135.942 24.336 135.942 22.896C135.942 22.296 136.038 21.516 136.23 20.556L138.678 9H143.862L141.27 21.24C141.198 21.6 141.162 21.936 141.162 22.248C141.162 23.232 141.522 23.724 142.242 23.724C142.914 23.724 143.49 23.448 143.97 22.896C144.45 22.32 144.834 21.54 145.122 20.556L147.57 9H152.754L150.162 21.24C150.066 21.6 150.018 21.984 150.018 22.392C150.018 22.872 150.126 23.22 150.342 23.436C150.582 23.628 150.966 23.724 151.494 23.724C152.166 23.724 152.742 23.436 153.222 22.86C153.726 22.284 154.122 21.516 154.41 20.556H155.922C155.034 23.148 153.93 24.912 152.61 25.848C151.314 26.76 150.006 27.216 148.686 27.216C147.654 27.216 146.826 26.928 146.202 26.352C145.602 25.776 145.242 24.924 145.122 23.796C144.306 25.116 143.442 26.016 142.53 26.496C141.642 26.976 140.73 27.216 139.794 27.216ZM176.294 27.216C174.83 27.216 173.75 26.832 173.054 26.064C172.382 25.272 172.046 24.3 172.046 23.148C172.046 22.644 172.106 22.08 172.226 21.456C172.346 20.808 172.466 20.184 172.586 19.584C172.73 18.984 172.826 18.6 172.874 18.432C173.066 17.592 173.246 16.764 173.414 15.948C173.582 15.132 173.666 14.472 173.666 13.968C173.666 12.744 173.234 12.132 172.37 12.132C171.746 12.132 171.194 12.444 170.714 13.068C170.234 13.668 169.85 14.46 169.562 15.444L167.114 27H161.93L164.558 14.58C164.63 14.292 164.666 13.992 164.666 13.68C164.666 12.624 164.306 12.096 163.586 12.096C162.914 12.096 162.326 12.408 161.822 13.032C161.342 13.632 160.958 14.436 160.67 15.444L158.222 27H153.038L156.854 9H162.038L161.642 10.872C162.866 9.504 164.33 8.82 166.034 8.82C168.146 8.82 169.382 9.852 169.742 11.916C171.062 9.876 172.73 8.856 174.746 8.856C175.97 8.856 176.942 9.192 177.662 9.864C178.382 10.536 178.742 11.556 178.742 12.924C178.742 13.62 178.658 14.4 178.49 15.264C178.322 16.104 178.082 17.136 177.77 18.36C177.578 19.104 177.398 19.836 177.23 20.556C177.086 21.252 177.014 21.804 177.014 22.212C177.014 22.692 177.122 23.064 177.338 23.328C177.554 23.592 177.926 23.724 178.454 23.724C179.174 23.724 179.75 23.472 180.182 22.968C180.614 22.44 181.046 21.636 181.478 20.556H182.99C182.102 23.196 181.07 24.972 179.894 25.884C178.742 26.772 177.542 27.216 176.294 27.216ZM203.365 27.216C201.901 27.216 200.821 26.832 200.125 26.064C199.453 25.272 199.117 24.3 199.117 23.148C199.117 22.644 199.177 22.08 199.297 21.456C199.417 20.808 199.537 20.184 199.657 19.584C199.801 18.984 199.897 18.6 199.945 18.432C200.137 17.592 200.317 16.764 200.485 15.948C200.653 15.132 200.737 14.472 200.737 13.968C200.737 12.744 200.305 12.132 199.441 12.132C198.817 12.132 198.265 12.444 197.785 13.068C197.305 13.668 196.921 14.46 196.633 15.444L194.185 27H189.001L191.629 14.58C191.701 14.292 191.737 13.992 191.737 13.68C191.737 12.624 191.377 12.096 190.657 12.096C189.985 12.096 189.397 12.408 188.893 13.032C188.413 13.632 188.029 14.436 187.741 15.444L185.293 27H180.109L183.925 9H189.109L188.713 10.872C189.937 9.504 191.401 8.82 193.105 8.82C195.217 8.82 196.453 9.852 196.813 11.916C198.133 9.876 199.801 8.856 201.817 8.856C203.041 8.856 204.013 9.192 204.733 9.864C205.453 10.536 205.813 11.556 205.813 12.924C205.813 13.62 205.729 14.4 205.561 15.264C205.393 16.104 205.153 17.136 204.841 18.36C204.649 19.104 204.469 19.836 204.301 20.556C204.157 21.252 204.085 21.804 204.085 22.212C204.085 22.692 204.193 23.064 204.409 23.328C204.625 23.592 204.997 23.724 205.525 23.724C206.245 23.724 206.821 23.472 207.253 22.968C207.685 22.44 208.117 21.636 208.549 20.556H210.061C209.173 23.196 208.141 24.972 206.965 25.884C205.813 26.772 204.613 27.216 203.365 27.216ZM214.163 36C213.035 36 212.039 35.628 211.175 34.884C210.335 34.164 209.915 33.24 209.915 32.112C209.915 31.056 210.179 30.192 210.707 29.52C211.235 28.848 211.919 28.32 212.759 27.936C213.599 27.552 214.727 27.144 216.143 26.712L216.503 25.128C215.279 26.52 213.815 27.216 212.111 27.216C210.959 27.216 210.023 26.856 209.303 26.136C208.607 25.416 208.259 24.336 208.259 22.896C208.259 22.296 208.355 21.516 208.547 20.556L210.995 9H216.179L213.587 21.24C213.515 21.528 213.479 21.828 213.479 22.14C213.479 23.196 213.839 23.724 214.559 23.724C215.231 23.724 215.807 23.448 216.287 22.896C216.767 22.32 217.151 21.54 217.439 20.556L219.887 9H225.107L220.715 29.88C220.235 32.184 219.383 33.78 218.159 34.668C216.959 35.556 215.627 36 214.163 36ZM213.335 32.796C213.767 32.796 214.175 32.568 214.559 32.112C214.943 31.68 215.243 30.972 215.459 29.988L215.891 27.864C214.619 28.296 213.635 28.8 212.939 29.376C212.243 29.952 211.895 30.696 211.895 31.608C211.895 31.896 212.039 32.16 212.327 32.4C212.615 32.664 212.951 32.796 213.335 32.796Z" fill="url(#paint0_linear)"/>
<defs>
<linearGradient id="paint0_linear" x1="84.6422" y1="-50.2692" x2="132.76" y2="21.6008" gradientUnits="userSpaceOnUse">
<stop stop-color="#5E6BCB"/>
<stop offset="1" stop-color="#BA5BB2"/>
</linearGradient>
</defs>
</svg>
